<svg fill="none" height="176" width="177" xmlns="http://www.w3.org/2000/svg"><clipPath id="a"><path d="M.17 0h176.66v175.75H.17z"/></clipPath><g clip-path="url(#a)"><path d="M142.479 72.17c4.212-5.566 3.117-13.492-2.447-17.703s-13.49-3.113-17.703 2.454L109.553 73.8c-4.213 5.566-3.117 13.493 2.447 17.704s13.49 3.112 17.703-2.454z" fill="#a0bff8"/><path d="M103.844 42.867 88.457 27.48a2.76 2.76 0 0 0-3.903 0L69.168 42.867a2.76 2.76 0 0 0 0 3.903l15.386 15.387a2.76 2.76 0 0 0 3.903 0l15.387-15.387a2.76 2.76 0 0 0 0-3.903z" fill="#ffc043"/><path d="M95.01 8.44A4.22 4.22 0 1 0 95.008 0a4.22 4.22 0 0 0 0 8.44z" fill="#05a357"/><path d="M106.169 36.68c4.634 0 8.39-3.756 8.39-8.39s-3.756-8.39-8.39-8.39a8.39 8.39 0 0 0 0 16.78z" fill="#66d19e"/><path d="M119.741 121.93h-63.35l-9.76-47.88h16.79l63.54 5.51a4.113 4.113 0 0 1 3.005 1.609 4.122 4.122 0 0 1 .765 3.321l-7 34.15a4.097 4.097 0 0 1-3.99 3.29z" fill="#ab1300"/><path d="M133.81 121.93H73.18l-9.76-47.88 77.61 5.51a4.113 4.113 0 0 1 3.005 1.609 4.122 4.122 0 0 1 .765 3.321l-7 34.15a4.097 4.097 0 0 1-3.99 3.29z" fill="#e8503d"/><path d="M128.32 102.71a2.46 2.46 0 0 0 2.39-2.52V92.9h-4.78v7.29a2.462 2.462 0 0 0 2.39 2.52z" fill="#ffd7d2"/><path d="M128.32 85.07a2.46 2.46 0 0 0-2.39 2.52v5.31h4.78v-5.31a2.456 2.456 0 0 0-2.39-2.52z" fill="#f1998e"/><path d="M81.39 102.71a2.46 2.46 0 0 0 2.39-2.52V92.9h-4.77v7.29a2.45 2.45 0 0 0 2.38 2.52z" fill="#ffd7d2"/><path d="M81.39 85.07a2.448 2.448 0 0 0-2.38 2.52v5.31h4.77v-5.31a2.46 2.46 0 0 0-2.39-2.52z" fill="#f1998e"/><path d="M118.94 111.47c.322-.009.639-.082.933-.213a2.463 2.463 0 0 0 1.288-1.364c.114-.301.169-.621.159-.943V92.9h-4.8v16.05a2.471 2.471 0 0 0 .685 1.764 2.469 2.469 0 0 0 1.735.756z" fill="#ffd7d2"/><path d="M118.94 85.07a2.46 2.46 0 0 0-2.39 2.52v5.31h4.77v-5.31a2.449 2.449 0 0 0-2.38-2.52z" fill="#f1998e"/><path d="M109.52 111.47a2.46 2.46 0 0 0 2.39-2.52V92.9h-4.78v16.05a2.461 2.461 0 0 0 2.39 2.52z" fill="#ffd7d2"/><path d="M109.52 85.07a2.46 2.46 0 0 0-2.39 2.52v5.31h4.78v-5.31a2.461 2.461 0 0 0-2.39-2.52z" fill="#f1998e"/><path d="M100.17 111.47a2.46 2.46 0 0 0 2.38-2.52V92.9h-4.77v16.05a2.46 2.46 0 0 0 2.39 2.52z" fill="#ffd7d2"/><path d="M100.17 85.07a2.46 2.46 0 0 0-2.39 2.52v5.31h4.74v-5.31a2.463 2.463 0 0 0-2.35-2.52z" fill="#f1998e"/><path d="M90.78 111.47a2.46 2.46 0 0 0 2.39-2.52V92.9h-4.78v16.05a2.462 2.462 0 0 0 2.39 2.52z" fill="#ffd7d2"/><path d="M90.78 85.07a2.46 2.46 0 0 0-2.39 2.52v5.31h4.78v-5.31a2.46 2.46 0 0 0-2.39-2.52z" fill="#f1998e"/><g stroke="#231f20" stroke-width="2.51"><path d="m72.83 121.93-12-56.34a7.41 7.41 0 0 0-7.24-5.86H40.52" stroke-miterlimit="10"/><path d="m57.61 121.93-12-56.34a7.411 7.411 0 0 0-7.24-5.86h-7.55" stroke-miterlimit="10"/><path d="M121.011 121.86h-59.64a7.47 7.47 0 0 0-5.795 2.76 7.47 7.47 0 0 0-1.505 6.24 7.442 7.442 0 0 0 7.3 5.93h59.55" stroke-linecap="round" stroke-linejoin="round"/></g><path d="M71.06 150.39a8 8 0 1 0 0-16 8 8 0 0 0 0 16z" fill="#141414"/><path d="M70.94 150.39h3.67V134.4h-3.67z" fill="#141414"/><path d="M74.61 150.39a8 8 0 1 0 0-16 8 8 0 0 0 0 16z" fill="#545454"/><path d="M74.61 146.68a4.29 4.29 0 1 0 0-8.58 4.29 4.29 0 0 0 0 8.58z" fill="#f6f6f6"/><path d="m71.4 137.518-1.675 1.676 7.53 7.531 1.676-1.676z" fill="#545454"/><path d="M123.42 150.39a8 8 0 1 0 0-16 8 8 0 0 0 0 16z" fill="#141414"/><path d="M123.289 150.39h3.67V134.4h-3.67z" fill="#141414"/><path d="M126.959 150.39a8 8 0 1 0 0-16 8 8 0 0 0 0 16z" fill="#545454"/><path d="M126.96 146.68a4.29 4.29 0 1 0 0-8.58 4.29 4.29 0 0 0 0 8.58z" fill="#f6f6f6"/><path d="m123.764 137.514-1.676 1.676 7.531 7.531 1.675-1.676z" fill="#545454"/><path d="M26.3 63.12h19.07c1.59 0 2.88-1.287 2.88-2.875s-1.29-2.875-2.88-2.875H26.3c-1.59 0-2.88 1.287-2.88 2.875s1.29 2.875 2.88 2.875z" fill="#231f20"/><path d="M114.439 146.37a5.677 5.677 0 0 0-1.82-.38 1.807 1.807 0 0 0-1.7.88c-.22.44-.09 1-.29 1.42.2-.45-3.92-2.75-4.45-3a12.318 12.318 0 0 0-4-1.16c-3-.31-5.26 1.08-4.82 4.32-3.47-2.63-8.31-6.13-12.83-4-2.2 1-3.61 3.95-2.33 6 2.83-.4 5.68.32 8.5.75 3.667.475 7.362.706 11.06.69l12.65.22c1.11 0 8.94 1.77 9.11 0 .11-1.17-5.36-3.91-6.15-4.33a22.227 22.227 0 0 0-2.93-1.41zm-59.609-8.28a9.358 9.358 0 0 0-3.26-1.32 3.714 3.714 0 0 0-3.25 1 4.117 4.117 0 0 0-.77 3.45c.27 1.184.604 2.352 1 3.5a69.36 69.36 0 0 0-10.36-6.86c-3.35-1.8-7-2.78-10.61-4.1s-9.68-2.17-10.74 2.88a7.87 7.87 0 0 0 .42 4 13.228 13.228 0 0 0 2.13 4c.55.77 2.5 2.55 1.38 3.55s-3.23-.8-4.19-1.51-2.18-1.16-3-.06c-.5.71.1 1.64-.47 2.32-1.51 1.79-5.24-.36-6.54-1.4a7.915 7.915 0 0 0-2.06-1.45 1.842 1.842 0 0 0-2.25.59c-1 1.83 1.74 4.38 3.22 5 1.92.77 4.17.46 6.18.46h51.46c1 0 5 .7 5.42-.63.31-1-1.69-2.66-2.23-3.22-3.5-3.76-6.97-7.55-11.48-10.2zm-20.27-8.77a1.96 1.96 0 1 0-.001-3.92 1.96 1.96 0 0 0 0 3.92z" fill="#d4e2fc"/><path d="M6.7 119.32a1.96 1.96 0 1 0 0-3.92 1.96 1.96 0 0 0 0 3.92z" fill="#5b91f5"/><path d="M2.13 127.96a1.96 1.96 0 1 0 0-3.92 1.96 1.96 0 0 0 0 3.92z" fill="#d4e2fc"/><path d="M176.82 150.38H2.9v25.36h173.92z" fill="#fff"/></g></svg>