<svg xmlns="http://www.w3.org/2000/svg" viewBox="0 0 500 500"><g id="freepik--Device--inject-2"><path d="M63.81,315.75l109.14,63a9.57,9.57,0,0,0,8.66,0l239.13-138c2.39-1.38,2.39-3.62,0-5l-109.14-63a9.51,9.51,0,0,0-8.66,0L63.81,310.75C61.42,312.13,61.42,314.37,63.81,315.75Z" style="fill:#455a64"></path><path d="M122.8,345a13.32,13.32,0,0,0,12,0c3.33-1.92,3.33-5,0-6.95a13.26,13.26,0,0,0-12,0C119.47,340,119.47,343.1,122.8,345Z" style="fill:#263238"></path><path d="M175,378.75l-109.14-63c-2.14-1.24-2.36-3.16-.67-4.54a9.69,9.69,0,0,0-3.66,7v4.07a9.58,9.58,0,0,0,4.33,7.5l109.14,63a8.83,8.83,0,0,0,4.33,1V379.79A8.83,8.83,0,0,1,175,378.75Z" style="fill:#37474f"></path><path d="M420.73,254.77a9.56,9.56,0,0,0,4.34-7.5V243.2a9.62,9.62,0,0,0-3.67-7c1.7,1.38,1.48,3.3-.66,4.53L181.61,378.75a8.89,8.89,0,0,1-4.33,1v14.07a8.89,8.89,0,0,0,4.33-1Z" style="fill:#263238"></path><path d="M190.93,365.7,86.47,305.36c-1.44-.83-1.44-2.18,0-3L288.39,185.75a5.74,5.74,0,0,1,5.2,0l104.5,60.33c1.43.83,1.43,2.17,0,3l-202,116.62A5.74,5.74,0,0,1,190.93,365.7Z" style="fill:#fff"></path><polygon points="148.84 332.01 161.03 324.97 156.97 322.63 144.78 329.66 148.84 332.01" style="fill:#F55951"></polygon><polygon points="295.08 247.58 307.27 240.54 303.2 238.2 291.02 245.24 295.08 247.58" style="fill:#F55951"></polygon><polygon points="319.45 233.51 331.64 226.47 327.58 224.13 315.39 231.16 319.45 233.51" style="fill:#F55951"></polygon><path d="M358.57,208.86a3.41,3.41,0,0,0,3.05,0,.93.93,0,0,0,0-1.76,3.35,3.35,0,0,0-3.05,0A.93.93,0,0,0,358.57,208.86Z" style="fill:#263238"></path><path d="M363.44,222.67a6.74,6.74,0,0,0,6.09,0c1.68-1,1.68-2.55,0-3.52a6.74,6.74,0,0,0-6.09,0C361.76,220.12,361.76,221.7,363.44,222.67Z" style="fill:#263238"></path><path d="M359.14,216.55c1.12-.65,1.06-1.73-.13-2.42l-20-11.57a4.61,4.61,0,0,0-4.2-.08c-1.12.65-1.06,1.73.13,2.42L355,216.47A4.62,4.62,0,0,0,359.14,216.55Z" style="fill:#263238"></path></g><g id="freepik--Locator--inject-2"><path d="M325,169.63l.68-.4a19,19,0,0,0-.68,5.24v2.44c0,8.76,10.51,31.14,14.38,39.06.4.83-4.91,6.48-4.91,6.48l6.31-3.64s15.77-13,15.77-23.68v-2.44c0-10.73-7.06-23.5-15.77-28.53-4.4-2.53-8.37-2.62-11.23-.7h0l-6,3.44Zm7.89,8.19c0-5,3.53-7.07,7.89-4.55-.36,3.23,5.54,13.29,7.88,13.66,0,5-3.53,7.07-7.88,4.55A17.42,17.42,0,0,1,332.93,177.82Z" style="fill:#F55951"></path><path d="M318.51,180.82c.18,10.72,16.46,41.63,16.46,41.63s15.56-13.22,15.39-23.94l0-2.44c-.18-10.72-7.45-23.38-16.25-28.26s-15.78-.16-15.6,10.57Zm7.9.78c-.08-5,3.42-7.13,7.81-4.69a17.43,17.43,0,0,1,8.11,13.53c.09,5-3.41,7.13-7.81,4.69A17.48,17.48,0,0,1,326.41,181.6Z" style="fill:#F55951"></path><path d="M318.51,180.82c.18,10.72,16.46,41.63,16.46,41.63s15.56-13.22,15.39-23.94l0-2.44c-.18-10.72-7.45-23.38-16.25-28.26s-15.78-.16-15.6,10.57Zm7.9.78c-.08-5,3.42-7.13,7.81-4.69a17.43,17.43,0,0,1,8.11,13.53c.09,5-3.41,7.13-7.81,4.69A17.48,17.48,0,0,1,326.41,181.6Z" style="opacity:0.1"></path></g><g id="freepik--Shadow--inject-2"><path d="M166,323.79c10.11,5.82,33.81,1.59,52.94-9.46L271.49,284c19.13-11.05,26.43-24.71,16.3-30.52s-33.85-1.56-53,9.48l-52.45,30.29C163.22,304.29,155.9,318,166,323.79Z" style="fill:#f0f0f0"></path></g><g id="freepik--Chronometer--inject-2"><g id="freepik--Clock--inject-2"><path d="M319,69.52h0l.05,0h0l8.65-5h0l.07,0h0c5.45-2.76,12.73-2,20.57,3.1,15.76,10.14,27.79,33.54,26.88,52.25-.46,9.33-4,15.73-9.47,18.55h0l-.05,0h0l-8.66,5h0l-.06,0h0c-5.45,2.77-12.74,2-20.59-3.09-15.75-10.15-27.78-33.54-26.87-52.25C310,78.74,313.59,72.34,319,69.52Z" style="fill:#37474f"></path><path d="M357.48,143.16l8.25-4.8h0l.06,0c5.42-2.83,9-9.23,9.46-18.55.4-8.34-1.77-17.61-5.69-26.22l-8.66,5c3.93,8.61,6.1,17.88,5.69,26.23C366.16,133.92,362.72,140.25,357.48,143.16Z" style="fill:#263238"></path><path d="M336.43,140.32c-15.75-10.15-27.78-33.54-26.87-52.25S324,62.41,339.72,72.55s27.79,33.54,26.88,52.25S352.18,150.46,336.43,140.32Z" style="fill:#455a64"></path><path d="M349.63,139c9.29.45,10.8-10,11-14.5.8-16.5-10.26-38-24.15-46.95a21,21,0,0,0-10-3.7c-9.28-.45-10.79,10-11,14.5-.8,16.5,10.25,38,24.15,47a21,21,0,0,0,10,3.7Z" style="fill:#fafafa"></path><path d="M336.26,109.53a.87.87,0,0,0,.32-.06,1,1,0,0,0,.69-1V84.64a1,1,0,0,0-2,0v20.93l-11.13-14.3a1,1,0,0,0-1.6,1.24l12.95,16.63A1,1,0,0,0,336.26,109.53Z" style="fill:#37474f"></path><path d="M342,127.16a.36.36,0,0,0,.14,0,.43.43,0,0,0,.29-.52l-5.61-18.89a.42.42,0,1,0-.81.24l5.6,18.89A.42.42,0,0,0,342,127.16Z" style="fill:#F55951"></path><path d="M336.58,103.74c-1.86-1.19-3.45-.37-3.55,1.83a7.62,7.62,0,0,0,3.16,6.14c1.85,1.2,3.44.38,3.55-1.82A7.67,7.67,0,0,0,336.58,103.74Z" style="fill:#F55951"></path></g></g><g id="freepik--Character--inject-2"><polygon points="173.22 317.94 185.4 310.9 181.34 308.56 169.16 315.59 173.22 317.94" style="fill:#F55951"></polygon><polygon points="197.59 303.87 209.78 296.83 205.71 294.49 193.53 301.52 197.59 303.87" style="fill:#F55951"></polygon><path d="M192.58,301c0,5.88-4.12,13-9.21,16-2.71,1.57-5.15,1.62-6.83.44h0a6.07,6.07,0,0,1-2.31-4.43,11.22,11.22,0,0,0,1-.53c5.09-2.93,9.21-10.08,9.21-16a9.13,9.13,0,0,0-.08-1.31,6.22,6.22,0,0,1,5-.36C191.36,295.65,192.58,297.82,192.58,301Z" style="fill:#263238"></path><path d="M193.41,288.92l-.17-.1c-2.56-1.36-6-1.11-9.87,1.11-7.85,4.53-14.22,15.55-14.22,24.62,0,4.56,1.61,7.75,4.21,9.23s6.11,1.23,10-1c7.85-4.53,14.21-15.56,14.21-24.63C197.58,293.59,196,290.4,193.41,288.92Zm-10,28.06c-2.72,1.57-5.16,1.62-6.84.43-1.48-1-2.38-3-2.38-5.75,0-5.87,4.13-13,9.22-16,2.32-1.34,4.43-1.57,6-.88,1.94.83,3.16,3,3.16,6.2C192.58,306.9,188.46,314.05,183.37,317Z" style="fill:#37474f"></path><path d="M189.88,295.05l-.11-.06c-1.66-.89-3.91-.72-6.4.71-5.09,2.94-9.22,10.09-9.22,16,0,3,1,5,2.73,6s4,.8,6.49-.66c5.09-2.94,9.21-10.09,9.21-16C192.58,298.08,191.55,296,189.88,295.05Zm-6.51,19.85c-2.18,1.26-4.14,1.3-5.5.34-1.18-.83-1.91-2.42-1.91-4.62a16.38,16.38,0,0,1,7.41-12.83,5.49,5.49,0,0,1,4.87-.71c1.56.67,2.54,2.41,2.54,5A16.35,16.35,0,0,1,183.37,314.9Z" style="fill:#F55951"></path><polygon points="221.96 289.79 234.15 282.76 230.09 280.41 217.9 287.45 221.96 289.79" style="fill:#F55951"></polygon><polygon points="246.34 275.72 258.52 268.69 254.46 266.34 242.27 273.38 246.34 275.72" style="fill:#F55951"></polygon><polygon points="270.71 261.65 282.89 254.62 278.83 252.27 266.64 259.31 270.71 261.65" style="fill:#F55951"></polygon><path d="M210.06,196.22a1,1,0,0,1,1.8.63,3.63,3.63,0,0,1-1.09,3.12c-.8.69-1.61.41-1.8-.63A3.64,3.64,0,0,1,210.06,196.22Z" style="fill:#F55951"></path><polygon points="219.44 200.64 211.29 195.93 209.5 200.24 217.68 204.96 219.44 200.64" style="fill:#F55951"></polygon><path d="M218.19,200.91c.8-.68,1.6-.4,1.8.64a3.65,3.65,0,0,1-1.1,3.11c-.8.69-1.61.41-1.8-.63A3.68,3.68,0,0,1,218.19,200.91Z" style="fill:#F55951"></path><path d="M280.83,240.35c0,.2,0,.38,0,.58,0,.4,0,.81,0,1.22-1.62-.69-3.73-.46-6.05.88-5.09,2.94-9.22,10.09-9.22,16,0,2.74.9,4.72,2.38,5.75a14.73,14.73,0,0,1-1.29.82l-.47.24-1.41,5.31-8.16-4.55c-2.58-1.49-4.17-4.67-4.17-9.21,0-9.07,6.36-20.09,14.21-24.63,3.88-2.24,7.39-2.47,10-1h0l8,4.48.17.1Z" style="fill:#455a64"></path><path d="M284.81,236.25l-.17-.1c-2.56-1.36-6-1.11-9.87,1.11-7.85,4.53-14.22,15.55-14.22,24.62,0,4.56,1.61,7.75,4.21,9.23s6.11,1.23,10-1c7.85-4.53,14.21-15.56,14.21-24.63C289,240.92,287.39,237.73,284.81,236.25Zm-10,28.06c-2.72,1.57-5.16,1.62-6.84.43-1.48-1-2.38-3-2.38-5.75,0-5.87,4.13-13,9.22-16,2.32-1.34,4.43-1.57,6.05-.88,1.94.83,3.16,3,3.16,6.2C284,254.23,279.86,261.38,274.77,264.31Z" style="fill:#37474f"></path><path d="M284,248.35c0,5.88-4.12,13-9.21,16-2.71,1.57-5.15,1.62-6.83.44h0a6.07,6.07,0,0,1-2.31-4.43,11.22,11.22,0,0,0,1-.53c5.09-2.93,9.21-10.08,9.21-16a9.13,9.13,0,0,0-.08-1.31,6.22,6.22,0,0,1,5-.36C282.76,243,284,245.15,284,248.35Z" style="fill:#263238"></path><path d="M281.28,242.38l-.11-.07c-1.66-.88-3.92-.72-6.4.72-5.09,2.94-9.22,10.08-9.22,16,0,3,1,5,2.73,6s4,.79,6.49-.67c5.09-2.93,9.21-10.08,9.21-16C284,245.41,283,243.34,281.28,242.38Zm-6.51,19.84c-2.19,1.27-4.15,1.31-5.5.35-1.19-.83-1.91-2.42-1.91-4.62a16.38,16.38,0,0,1,7.41-12.83c1.86-1.08,3.56-1.27,4.86-.71,1.56.67,2.54,2.41,2.54,5A16.34,16.34,0,0,1,274.77,262.22Z" style="fill:#F55951"></path><path d="M266.64,251.34l23-13.28c2.67-1.55-6-10.6-12.45-11.21a24.9,24.9,0,0,0-10.56,1s4.91,6.29,4.07,9.86S266.64,251.34,266.64,251.34Z" style="fill:#F55951"></path><path d="M234.15,213.81s33.34,16.82,34.78,17.83,0,12.74-2.29,19.7S260.83,269,259.42,272s-3.25,4.12-6.63,6.07l-24,13.87L196.3,295.9l-12.9-7,3.36-21.11s34.53-18.37,39.26-21.1S244.74,231.15,234.15,213.81Z" style="fill:#F55951"></path><path d="M234.15,213.81s33.34,16.82,34.78,17.83,0,12.74-2.29,19.7S260.83,269,259.42,272s-3.25,4.12-6.63,6.07l-24,13.87L196.3,295.9l-12.9-7,3.36-21.11s34.53-18.37,39.26-21.1S244.74,231.15,234.15,213.81Z" style="opacity:0.2"></path><path d="M269.57,247.33c3-8.06,5.24-14.74,4.86-19.25-.46-5.35-2.46-9.72-11.28-11.92S242,214,242,214l-3.75,2.17s25.36,14.7,28.24,16.3c1.76,1,3.64,5.41.19,18.88l.59.34C267.56,251.87,268.61,249.92,269.57,247.33Z" style="fill:#F55951"></path><path d="M269.57,247.33c3-8.06,5.24-14.74,4.86-19.25-.46-5.35-2.46-9.72-11.28-11.92S242,214,242,214l-3.75,2.17s25.36,14.7,28.24,16.3c1.76,1,3.64,5.41.19,18.88l.59.34C267.56,251.87,268.61,249.92,269.57,247.33Z" style="fill:#fff;opacity:0.30000000000000004"></path><path d="M250.36,223.19l4.1-2.34s-.24-14.21-6.22-17.66-26.28-1.1-26.28-1.1l-4.06,2.34Z" style="fill:#F55951"></path><path d="M237.06,206.44c-1.95,1.13-1.95,2.95,0,4.07a7.78,7.78,0,0,0,7.06,0c1.94-1.12,1.94-2.95,0-4.07A7.84,7.84,0,0,0,237.06,206.44Z" style="fill:#f0f0f0"></path><path d="M243.3,213.23c-1.37.8-1.37,2.09,0,2.88a5.49,5.49,0,0,0,5,0c1.38-.79,1.38-2.08,0-2.88A5.55,5.55,0,0,0,243.3,213.23Z" style="fill:#f0f0f0"></path><path d="M227.59,204.63c-1.38.79-1.38,2.08,0,2.88a5.55,5.55,0,0,0,5,0c1.38-.8,1.38-2.09,0-2.88A5.49,5.49,0,0,0,227.59,204.63Z" style="fill:#f0f0f0"></path><path d="M251,219.07c.8-.69,1.6-.41,1.8.63a3.67,3.67,0,0,1-1.1,3.12,1,1,0,0,1-1.8-.63A3.63,3.63,0,0,1,251,219.07Z" style="fill:#F55951"></path><polygon points="260.33 223.49 252.17 218.78 250.39 223.09 258.56 227.8 260.33 223.49" style="fill:#F55951"></polygon><path d="M259.07,223.76a1,1,0,0,1,1.8.63,3.64,3.64,0,0,1-1.1,3.12c-.8.69-1.6.4-1.8-.63A3.66,3.66,0,0,1,259.07,223.76Z" style="fill:#F55951"></path><path d="M259.07,223.76a1,1,0,0,1,1.8.63,3.64,3.64,0,0,1-1.1,3.12c-.8.69-1.6.4-1.8-.63A3.66,3.66,0,0,1,259.07,223.76Z"></path><path d="M189.43,293c0,.2,0,.38,0,.58,0,.4,0,.81,0,1.22-1.62-.69-3.73-.46-6,.88-5.09,2.94-9.22,10.09-9.22,16,0,2.74.9,4.72,2.38,5.75a14.73,14.73,0,0,1-1.29.82l-.47.24-1.41,5.31-8.16-4.55c-2.58-1.49-4.17-4.67-4.17-9.21,0-9.07,6.36-20.09,14.21-24.63,3.88-2.24,7.39-2.47,10-1h0l8,4.48.17.1Z" style="fill:#455a64"></path><polygon points="165.09 277.13 159 298.24 171.19 305.28 177.5 284.3 165.09 277.13" style="fill:#F55951"></polygon><polygon points="165.09 277.13 159 298.24 171.19 305.28 177.5 284.3 165.09 277.13" style="opacity:0.2"></polygon><path d="M165.09,277.13S172,283,177.5,284.3c7.22,1.75,18.7,1.94,22.77,2.22,6.22.43,10.92.42,13.12-.37,2.85-1,10.51-5.45,12.63-6.67,4.06-2.34,5.79-11.55-5.4-14.07a113,113,0,0,0-23-2.35Z" style="fill:#F55951"></path><path d="M234,274.43a11,11,0,0,0-.7,2.71,6.11,6.11,0,0,0-.22,3,6,6,0,0,0,3.37,2.63,7.57,7.57,0,0,0,5.93-1.15c2.07-1.24,3.63-2.74,6.57-3.58a14.78,14.78,0,0,0,5.8-2.63c1.63-1.31,3.81-4.93.69-5.77s-9.9,2.12-16.08,2.39Z" style="fill:#37474f"></path><path d="M234,270.57v4.62a3,3,0,0,0,2.45,1.95,3,3,0,0,0,1.49-.16,4.11,4.11,0,0,0,2.64-3.66l.18-2.75Z" style="fill:#ffa8a7"></path><path d="M242.8,242c0,5.75-1.62,30.61-1.62,30.61s-2.35,3-7.46,0L232,244.83Z" style="fill:#37474f"></path><path d="M216,266.5l16-9.22a4.06,4.06,0,0,0,0-7.19l-11.92-6.88a4.79,4.79,0,0,0-4.33,0l-16,9.22a4.07,4.07,0,0,0,0,7.19l11.92,6.88A4.79,4.79,0,0,0,216,266.5Z" style="fill:#F55951"></path><path d="M216,266.5l16-9.22a4.06,4.06,0,0,0,0-7.19l-11.92-6.88a4.79,4.79,0,0,0-4.33,0l-16,9.22a4.07,4.07,0,0,0,0,7.19l11.92,6.88A4.79,4.79,0,0,0,216,266.5Z" style="fill:#fff"></path><path d="M199.75,254.93l11.92,6.88a4.79,4.79,0,0,0,4.33,0l16-9.22a1.32,1.32,0,0,0,0-2.5l-11.92-6.88a4.79,4.79,0,0,0-4.33,0l-16,9.22A1.32,1.32,0,0,0,199.75,254.93Z" style="fill:#F55951"></path><polygon points="209.5 193.73 207.47 202.1 198.75 202.63 200.63 191.03 209.5 193.73" style="fill:#ffa8a7"></polygon><path d="M218,187.43s1,3.54.59,3.74a6.3,6.3,0,0,1-1.9,0Z" style="fill:#f28f8f"></path><path d="M216.33,176.13c1.4,1.65,2.68,4.36,1.69,11-1.08,7.26-2.42,8.1-3.5,8.8-1.41.92-7.05.43-8.64-.73-1.91-1.39-4.86-5.8-5.56-10.15-.82-5.11.89-10.78,4.65-11.75C210.26,171.93,215.14,174.73,216.33,176.13Z" style="fill:#ffa8a7"></path><path d="M199.75,193.38c1.35,1.4,4.12,1.78,5.86,2.1s7.09.67,8.67-3.14.5-6.55,2.44-7.47,3.88-1.52,4.39-2,.52-6.75-4.69-10-13.19-4-18.44,2.59C194,180.55,195.63,189.08,199.75,193.38Z" style="fill:#455a64"></path><path d="M205,195.53c1.35.12,5.62-.55,6.91-2.31s1.81-4.91,2-6.56a2.86,2.86,0,0,1,2.31-2.73c1.29-.41,4.14-1.81,4.14-1.81l0-.78a22,22,0,0,1,2.76,0c.6.11.27,1-1.25,1.77s-5.69,2.26-6.33,2.77-.94,2.66-1.45,4.95S212,196.54,205,195.53Z" style="fill:#37474f"></path><path d="M217,205l5-2.87c.48-1.45-.29-2.18-1.65-2.09s-.94-1.23-1.77-1.6c-1.09-.5-1.71-.22-2.2-.45s-.7-.81-1.34-.88c-2.86-.27-4.81,3.81-4.81,3.81Z" style="fill:#f28f8f"></path><path d="M183.06,241.72S205.15,230.77,209,229s9.89-4.34,13.1-4.34a5.23,5.23,0,0,1,4.79,4.9,36.77,36.77,0,0,1-.33,5.77A135.87,135.87,0,0,1,208,240C198.81,241.6,183.06,241.72,183.06,241.72Z" style="fill:#37474f"></path><path d="M185.46,235.39c0,4.54-.43,9.26,1.46,12.58s12.13,11,21.77,9.39c6.3-1.06,25-9.67,25-9.67s9.07-3.33,9.11-5.7c.06-3.49-.18-8.41-8.09-8.2-7.21.19-28.48,4.63-28.48,4.63Z" style="fill:#455a64"></path><path d="M191.63,199.42c3.42-3.57,5.73-3.87,7.37-3.43a57.56,57.56,0,0,1,10.89,4.36h0s-1.32,12.78,4.93,16.46v19.92s-.19,2.16-2.91,4.31c-2.4,1.89-7.83,3.8-14.31,3.26-7.7-.64-12.14-8.91-12.14-8.91s-.2-16.29.89-22.76C187.63,205.08,190.45,200.66,191.63,199.42Z" style="fill:#455a64"></path><path d="M214.82,217.78s-3.78-3-4.93-6.9c0,0,.45,6.12,4.93,9.22Z" style="fill:#37474f"></path><path d="M249.81,227.18a7.81,7.81,0,0,0,5-1.55s1.74-3.38,3.88-3.09c0,0,.38-1.44-.5-1.91s-1.26-.34-1.62-.84-.4-1.43-2-1.43c-.66,0-.57-.47-2.17-.66s-3.18,3.5-4.35,3.5Z" style="fill:#ffa8a7"></path><path d="M209.89,200.35c5.49.85,7.48,2.48,9.48,4.33s14.24,14.13,14.24,14.13l14.82,2.13a5,5,0,0,1,1.64,2.44c.6,1.74.06,3.64-.51,4.09,0,0-14.7.88-17.59.33s-17.2-10.05-17.2-10.05a12.82,12.82,0,0,1-5-8.63C208.84,203.09,209.89,200.35,209.89,200.35Z" style="fill:#455a64"></path><path d="M196.71,253.17,174,280.89a6.33,6.33,0,0,1-.76.05,5.44,5.44,0,0,1-2.59-.61l-19.18-11.08-1.3-.75c-.71-.41-1.3-2.09-1.3-3.75v-4.67a27.33,27.33,0,0,1,13.66-23.67l22.9-13.22,24.37,14.07Z" style="fill:#F55951"></path><g style="opacity:0.1"><path d="M196.71,253.17,174,280.89a6.33,6.33,0,0,1-.76.05,5.44,5.44,0,0,1-2.59-.61l-19.18-11.08-1.3-.75c-.71-.41-1.3-2.09-1.3-3.75v-4.67a27.33,27.33,0,0,1,13.66-23.67l22.9-13.22,24.37,14.07Z"></path></g><path d="M188.88,262.73l20.89-25.46L185.4,223.2l-22.89,13.21a27.28,27.28,0,0,0-7.7,6.65Z" style="fill:#F55951"></path><path d="M209.77,257.71c0,1.66-.58,3.34-1.3,3.75l-1.3.75-31.36,18.11a5,5,0,0,1-1.84.57,6.33,6.33,0,0,1-.76.05v-6.79a27.32,27.32,0,0,1,13.67-23.67l2.59-1.49,20.3-11.73Z" style="fill:#F55951"></path><g style="opacity:0.2"><path d="M209.77,257.71c0,1.66-.58,3.34-1.3,3.75l-1.3.75-31.36,18.11a5,5,0,0,1-1.84.57,6.33,6.33,0,0,1-.76.05v-6.79a27.32,27.32,0,0,1,13.67-23.67l2.59-1.49,20.3-11.73Z"></path></g><polygon points="216.5 292.01 228.77 291.97 246.33 281.83 246.33 281.83 229.13 294.26 216.18 294.44 216.5 292.01" style="fill:#e0e0e0"></polygon><path d="M186.71,309.47s22.12-8.34,24-9.32a48,48,0,0,0,6.26-4.57,2.66,2.66,0,0,0-.33-3.57s-9-.41-11.31.3c-1.29.39-22.11,7.07-22.11,7.07Z" style="fill:#e0e0e0"></path><path d="M185.72,300.15c-1.83-1.57-3.67-.92-4.12,1.44a8.35,8.35,0,0,0,2.51,7.13c1.83,1.57,3.67.93,4.12-1.44A8.36,8.36,0,0,0,185.72,300.15Z" style="fill:#455a64"></path></g></svg>