<svg viewBox="0 0 362.252 468.212" xmlns="http://www.w3.org/2000/svg">
  <defs></defs>
  <g id="freepik--character-2--inject-2">
    <g id="freepik--Chartacter--inject-2">
      <g id="freepik--bottom--inject-2">
        <path d="M175.88,365.23l-1.5-16.55,18.89,1.56s-.44,9-.79,14c-.2,3,3.75,8.64,3.75,8.64s-9,4.61-13.69,2.87-7.16-7.71-7.07-9S175.88,365.23,175.88,365.23Z" style="fill:#ffa8a7"></path>
        <path d="M221,391.79c.3,0,.75,3.07-.87,4.38-1.87,1.51-7.36,4-14.62,3.12s-11.19-3-14.09-5.24-7-5.48-10.26-6.16c-3-.62-6.36-1.91-7.33-2.8s-.84-4.8-.84-4.8Z" style="fill:#263238"></path>
        <path d="M175.88,365.2a1.16,1.16,0,0,0-1.1.92c-.23,1.08-.47,4.22-.95,6a29.61,29.61,0,0,0-.71,9.53c.39,2,5.37,3.4,8.54,4.53A40.91,40.91,0,0,1,192,392.25c3.41,2.63,10.58,5.36,15.31,5.33,5.6-.05,11.9-1.75,13.35-4.17,1.78-3,3.09-6.5-5.21-10.09-1.57-.68-7.09-3.74-9-4.84-5.08-3-8.66-5.74-11-11a3,3,0,0,0-1.19-1.62,2.78,2.78,0,0,0-1.62-.14c-1.38.18-6.89.9-8.15,1.46s-2.7,1.08-2.68,2.41a4.28,4.28,0,0,0,.32,1.36c.1.27.17.63-.08.79s-.56,0-.78-.2A20.42,20.42,0,0,1,179,369a7.46,7.46,0,0,0-1.32-1.25,15.29,15.29,0,0,1-1.42-.86C175.78,366.41,175.9,365.83,175.88,365.2Z" style="fill:#455a64"></path>
        <path d="M192,392.25c-1.45-1.12-3-2.2-4.52-3.16h0s9.75,5.55,13.7,3c2.54-1.63,1.33-3.6,1.27-4.23s8.91-5.08,11.38-5.36h0c.68.35,1.26.64,1.62.8,8.3,3.59,7,7.08,5.21,10.09-1.45,2.42-6,4.32-13.25,4.33C202.63,397.74,195.36,394.88,192,392.25Z" style="fill:#37474f"></path>
        <path d="M201.72,386c5.16,1.93,3,2.83,1.51,3s-10.13-4.55-15.42-8.47c-5.53-4.08-9-8.55-11.06-10.05-.77-.56-1.59-1.25-2.32-1.89.13-1.07.24-2,.35-2.54a1.16,1.16,0,0,1,1.1-.92c0,.63-.1,1.21.4,1.68a15.29,15.29,0,0,0,1.42.86A7.46,7.46,0,0,1,179,369a20.42,20.42,0,0,0,2.23,2.51C185.76,376.85,196.56,384.12,201.72,386Z" style="fill:#37474f"></path>
        <path d="M202.86,388.36a.56.56,0,0,1-.32-.11.45.45,0,0,1-.07-.67c1.46-1.67,8.36-5.64,12.16-5.25a.48.48,0,1,1-.11.95c-3.55-.35-10.11,3.58-11.26,4.9A.52.52,0,0,1,202.86,388.36Z" style="fill:#263238"></path>
        <path d="M198.36,385.77a.56.56,0,0,1-.32-.11A.45.45,0,0,1,198,385c1.46-1.67,8.36-5.63,12.16-5.25a.49.49,0,0,1,.45.53.5.5,0,0,1-.56.42c-3.55-.35-10.11,3.58-11.26,4.9A.52.52,0,0,1,198.36,385.77Z" style="fill:#263238"></path>
        <path d="M193.86,383.32a.54.54,0,0,1-.32-.11.45.45,0,0,1-.07-.67c1.45-1.67,8.36-5.64,12.15-5.25a.48.48,0,1,1-.11.95c-3.54-.35-10.1,3.58-11.25,4.9A.52.52,0,0,1,193.86,383.32Z" style="fill:#263238"></path>
        <path d="M189.69,380.52a.54.54,0,0,1-.32-.11.45.45,0,0,1-.07-.67c1.45-1.67,8.37-5.64,12.15-5.25a.48.48,0,1,1-.11.95c-3.54-.35-10.1,3.58-11.25,4.9A.52.52,0,0,1,189.69,380.52Z" style="fill:#263238"></path>
        <path d="M185.61,377.71a.51.51,0,0,1-.32-.1.45.45,0,0,1-.08-.67c2-2.37,9.23-5.68,13-5.29a.47.47,0,0,1,.45.52.5.5,0,0,1-.56.43c-3.41-.35-10.34,2.84-12.11,4.93A.52.52,0,0,1,185.61,377.71Z" style="fill:#263238"></path>
        <path d="M133.94,371.45l4.46-15.19L119.67,353l-1.08,14.76s-2.09,5.24-1,7.21,13.56,4.37,14.74,3.12S133.94,371.45,133.94,371.45Z" style="fill:#ffa8a7"></path>
        <path d="M131.46,404.72c-.69,4.72-1.77,7.75-3.9,10.26s-5.79,2.83-9.36,1.45-8.06-4.28-8.77-8.55-.29-7.06.89-11.36Z" style="fill:#263238"></path>
        <path d="M118.59,367.8c-1.51-.12-1.32,6.38-2.69,12.66-1.47,6.73-4,9.21-5.28,14.72-1.46,6.29-1.31,9.23.92,13.51s10.91,9.47,15.78,4.58c4-4,4.52-9,4.7-15.48a144.55,144.55,0,0,1,1-16.41c.67-4.78,2.2-9,.94-9.74-.16.7-.33,1.58-.49,2.26-.12.52-.48,3.11-1.32,3a8.54,8.54,0,0,1,.13-1.82,2.05,2.05,0,0,0-.29-1.61,7,7,0,0,0-2.39-1.31c-1.45-.49-4.06-1.12-5.55-1.47-.74-.17-1.49-.32-2.24-.42a6.2,6.2,0,0,0-1.92,0,1.18,1.18,0,0,0-.86.52,1.79,1.79,0,0,0-.14.73,4.39,4.39,0,0,1-.29,1.29c-.07.18-.24.39-.45.31a.4.4,0,0,1-.21-.42c.06-.78.21-1.33.32-2.23.06-.41.18-1,.22-1.39S118.52,368.21,118.59,367.8Z" style="fill:#455a64"></path>
        <path d="M111.1,393.4c-.22.91-1.59,6.92.21,8.32s3.44-3.15,3.44-3.15,4.89-.57,11.64,3.2c-.44,1,.37,4.4,2.34,4s3.26-7.34,3.28-7.43c-.2,6.21-.83,11.05-4.69,14.93-4.87,4.89-13.55-.3-15.78-4.58s-2.38-7.22-.92-13.51C110.76,394.55,110.93,394,111.1,393.4Z" style="fill:#37474f"></path>
        <path d="M115.27,399.06c-.22,2.33-2.74,1.14-2.59-2.16s2.79-10.79,3.22-16.44c.67-7.76,1.18-12.78,2.69-12.66l0,.24-.45,3.22a11.92,11.92,0,0,0-.2,1.39c-.41,4.74-.75,14-1.56,18.23A66.6,66.6,0,0,0,115.27,399.06Z" style="fill:#37474f"></path>
        <path d="M125.58,401.59a64.94,64.94,0,0,0,2.08-7.95c.86-4.22,3.65-12.64,5.05-17.17a10.29,10.29,0,0,0,.73-2.57c.15-.63.31-1.44.46-2.11a.74.74,0,0,1,0-.14c.9.55.47,4.22-.07,6.11s-1.21,3.91-1.9,6.63c-1.73,5.34-2.12,13.42-3.22,16.49S124.91,403.8,125.58,401.59Z" style="fill:#37474f"></path>
        <path d="M126.52,402a.5.5,0,0,1-.2-.08,20.67,20.67,0,0,0-11.46-2.83.61.61,0,0,1-.65-.46.45.45,0,0,1,.44-.54,21.71,21.71,0,0,1,12.26,3,.5.5,0,0,1,.18.71A.55.55,0,0,1,126.52,402Z" style="fill:#263238"></path>
        <path d="M128.17,397.13a.71.71,0,0,1-.18-.08,25.63,25.63,0,0,0-12.83-3.17.6.6,0,0,1-.64-.47.46.46,0,0,1,.46-.53,26.45,26.45,0,0,1,13.56,3.35.5.5,0,0,1,.21.7A.54.54,0,0,1,128.17,397.13Z" style="fill:#263238"></path>
        <path d="M115.9,389.14a.61.61,0,0,1-.45-.4.47.47,0,0,1,.4-.58c6.88-1,13.28,3.07,13.55,3.24a.49.49,0,0,1,.18.7.58.58,0,0,1-.76.1c-.06,0-6.28-4-12.68-3A.65.65,0,0,1,115.9,389.14Z" style="fill:#263238"></path>
        <path d="M116.64,384.68a.61.61,0,0,1-.44-.4.45.45,0,0,1,.39-.58,20,20,0,0,1,13.82,3.24.48.48,0,0,1,.14.71.59.59,0,0,1-.78.05c-.05,0-5.83-4.14-12.88-3A.7.7,0,0,1,116.64,384.68Z" style="fill:#263238"></path>
        <path d="M117.5,379.67a.64.64,0,0,1-.44-.39.46.46,0,0,1,.38-.59c7.11-1.24,13.64,3.2,13.91,3.4a.47.47,0,0,1,.15.7.58.58,0,0,1-.77.07c-.06-.05-6.37-4.34-13-3.18A.76.76,0,0,1,117.5,379.67Z" style="fill:#263238"></path>
        <path d="M132.42,200.49c-4.67,40.78-7.46,96.73-7.46,96.73-.4,3.09-2.79,8.34-4.83,23.6-2.16,16.11-2.6,38.93-2.6,38.93s11,6.41,20.29,3.67c0,0,9.82-35.59,15.21-54.48,5.09-17.87,11.34-44,11.34-44l4.54,27.28s-1,11.63-1,19.8c.07,9.5,5.91,44.83,5.91,44.83s10.8,7.29,20.61.33c0,0,3.79-53.16,4.46-64.56,1.3-22.36,1.88-65.8,2.06-94.71Z" style="fill:#F55951"></path>
        <path d="M132.42,200.49c-4.67,40.78-7.46,96.73-7.46,96.73-.4,3.09-2.79,8.34-4.83,23.6-2.16,16.11-2.6,38.93-2.6,38.93s11,6.41,20.29,3.67c0,0,9.82-35.59,15.21-54.48,5.09-17.87,11.34-44,11.34-44l4.54,27.28s-1,11.63-1,19.8c.07,9.5,5.91,44.83,5.91,44.83s10.8,7.29,20.61.33c0,0,3.79-53.16,4.46-64.56,1.3-22.36,1.88-65.8,2.06-94.71Z" style="fill:#fff;opacity:0.5"></path>
        <path d="M164.37,265,170.12,236s11.22-1.24,17.11-6.15c0,0-3.92,6.63-14.54,8.92l-5.63,26.32,1.85,27.13Z" style="fill:#F55951;opacity:0.6000000000000001"></path>
        <path d="M117.26,360.19c2.21,3.12,12.35,6.5,20.69,4l1.65-6.24c-6.29,1.75-17-.45-22-4.59Z" style="fill:#F55951"></path>
        <path d="M173.75,357.85c2.72,2.69,13,4.31,20.82.41l.54-6.43c-5.89,2.8-16.56,2.62-22.15-.61Z" style="fill:#F55951"></path>
      </g>
      <g id="freepik--top--inject-2">
        <path d="M277.35,146.53a9.4,9.4,0,0,0,.77-2.77,2.53,2.53,0,0,0-.21-1.69,1.69,1.69,0,0,0-1.35-1c.65-1.78,1.29-2.82.47-4.47-1.43-2.86-5.61,3-7,4.09a65.17,65.17,0,0,1-8.53,6.36c-1.11.64-2.15,1.35-3.28,1.86-.68.3-1.83.7-2.46.18s0-1.69.46-2.68a11.59,11.59,0,0,0,1.4-4c.05-1.32,0-2.1-1.13-2.85a.85.85,0,0,0-.6-.19.91.91,0,0,0-.55.52,18.23,18.23,0,0,1-1.6,2.6c-1.9,2.44-2.79,3.16-4.38,6.48a24.33,24.33,0,0,0-2.06,3.77c-.83,1.53-1.45,2.49-4.82,3.77-2.6,1-18.88,5.14-26.46,7.56l-8.55,21.18c3.13,1.42,5.6-.13,9.67-1.75,18.52-7.33,23.08-9.69,28.39-11.84,4.67-1.9,8.35-3.1,10.2-3.68,7.24-2.28,10.18-2.91,18-10.15C275.6,156.11,280.65,149,277.35,146.53Z" style="fill:#ffa8a7"></path>
        <path d="M189.45,122.46c-3.76,1.64-5.55,5.78-6.21,10.87-.94,7.29.57,13.43,3.43,20.13s12.61,23,14.81,26.46S206,186.59,209,187s6.35-1.3,9.27-2.38c0,0-3.26-15.7-.6-21.76L216,162.4s-7.06-17.64-10.47-25.25S201.4,124.29,189.45,122.46Z" style="fill:#37474f"></path>
        <path d="M216.57,162.57l7.08-1.58a28.7,28.7,0,0,0-.28,10.6,31.79,31.79,0,0,0,3,8.93,80,80,0,0,1-10.34,5.3S209,171.61,216.57,162.57Z" style="fill:#455a64"></path>
        <path id="freepik--Chest--inject-2" d="M150.57,121.73c-11.7,2.55-18.69,4.71-18.69,4.71s-5.06,20.68-1.35,37.62c.86,3.9,2.44,14.08,1.82,22.3-.66,8.68-.84,14.75-1.56,25.49,0,0,13.83,8.74,43.23,7.25,23.09-1.17,27.35-8.26,27.35-8.26s-.3-35.37,0-51c.59-30.09-8.78-35.83-11.92-37.34-10.67-.87-18.51-1.72-23-1.82S159,119.89,150.57,121.73Z" style="fill:#455a64"></path>
        <path d="M132.46,130.72c3.32,3.59,7.69,12.75,11.34,23.19L154,175.61c7-4.15,22.18-12,24.53-13.61,3-2.05,3.45-3.14,3.92-4.86a24.24,24.24,0,0,1,1.17-4.22c.81-3.66,1.53-4.57,2.86-7.44a18.75,18.75,0,0,0,1-2.95,1,1,0,0,1,.43-.64.85.85,0,0,1,.64.05c1.25.5,1.52,1.25,1.77,2.57a11.23,11.23,0,0,1-.46,4.29c-.24,1.1-.57,2.27.16,2.77,1.1.55,1.95-.56,2.44-1.09,1.91-2.5,7-10,9.33-12.82a4.25,4.25,0,0,1,1.86-1.56c1.31-.4,2.17.5,2.06,1.86a4,4,0,0,1-.52,1.45c-1.24,2.36-5,8.06-5.83,9.6-.31.56-.75,1.59-.23,2,.89.85,2.42-.22,3.51-1.08,4.52-3.6,5.68-4.26,8.71-6.5a2.22,2.22,0,0,1,3,0,1.74,1.74,0,0,1-.13,2.37c-.45.53-1.73,1.78-2.77,2.75-1.78,1.65-7.34,6.55-7.34,6.55,1.46.42,2.25,2.72.65,4.76a4.46,4.46,0,0,1-.8,5.1c-1.48,1.77-5.76,4.39-9.57,5.41a16.53,16.53,0,0,0-6.73,3.46c-4.44,3.79-11.31,9.3-28,20.85-3.67,2.55-9,4.36-12.46,3.68s-7.1-7.14-8.53-9.3c-1.79-2.72-11.92-20.77-16.12-31.43S118.72,136.4,132.46,130.72Z" style="fill:#ffa8a7"></path>
        <path d="M132,126.43c-7.29,2.58-11,5.84-12.5,12.93-1.53,7.33.88,15.6,3.88,22.39s13.66,27,15.95,30.5,4.73,6.74,7.78,7.13,7.12-1.32,9.45-3c0,0-2.42-16,.21-22.2l-1.72-.28-11.33-25.51S137.35,129.54,132,126.43Z" style="fill:#37474f"></path>
        <path d="M154.87,173.61l7-2.48s-1.49,6.89-.41,12.34a26.77,26.77,0,0,0,3,8.51c-3.14,2.64-6.57,5.1-10.34,6.08C154.19,198.06,147.25,182.93,154.87,173.61Z" style="fill:#455a64"></path>
        <g id="freepik--head--inject-2">
          <path d="M187.25,86.64c-4.69,10.09-34.19,24.48-34.19,24.48l0-.06a20.81,20.81,0,0,0-2.59-4.75,36,36,0,0,1-3.33-5.25,35.45,35.45,0,0,1-4.2-11.35c-1-6.17.36-12.94,4.82-17.54a26.46,26.46,0,0,1,4.44-3.56c7.44-4.92,18.46-5.39,26.45-1.63,4,1.86,7.15,4.52,8.59,8.57C187.77,77.09,189,82.92,187.25,86.64Z" style="fill:#37474f"></path>
          <path d="M148.15,105.54c3.59,1,4.74-1.29,4.74-1.29l0,19c6.41,9.33,28.17,7.39,22.56.19v-6.81a34.29,34.29,0,0,0,4.82-.5c4.23-.8,6.57-3.65,7.48-7.92,1.41-6.68.7-24.17-1.28-30.07-4.36-3.36-18.66-3.84-27.79,2,.46,7.74-1.67,11.18-1.65,14a7.59,7.59,0,0,1-1.67,2.18c-1.42,1.24-2.05-1.85-3.79-3.2a5.19,5.19,0,0,0-7.67,2.15C141.92,99.47,144.58,104.52,148.15,105.54Z" style="fill:#ffa8a7"></path>
          <path d="M170.27,91.67a2,2,0,0,1-2,1.92,2,2,0,0,1-1.85-2.06,2,2,0,0,1,2-1.92A2,2,0,0,1,170.27,91.67Z" style="fill:#263238"></path>
          <path d="M168.05,86l-4.16,2.13A2.45,2.45,0,0,1,165,84.94,2.28,2.28,0,0,1,168.05,86Z" style="fill:#37474f"></path>
          <path d="M185.27,87.24l-4.34-1.84a2.26,2.26,0,0,1,3-1.3A2.49,2.49,0,0,1,185.27,87.24Z" style="fill:#37474f"></path>
          <path d="M184.6,91.23a1.94,1.94,0,0,1-2,1.92,2,2,0,1,1,2-1.92Z" style="fill:#263238"></path>
          <polygon points="173.92 87.39 175.35 100.12 182.3 97.52 173.92 87.39" style="fill:#f28f8f"></polygon>
          <path d="M168.82,103.05l7,1.52a3.5,3.5,0,0,1-4.17,2.85A3.74,3.74,0,0,1,168.82,103.05Z" style="fill:#b16668"></path>
          <path d="M169.65,104.19a4.11,4.11,0,0,0-.86,0,3.52,3.52,0,0,0,4,3.26A3.28,3.28,0,0,0,169.65,104.19Z" style="fill:#f28f8f"></path>
          <path d="M175.42,116.66c-5.48.23-11.92-1.29-14.31-2.89s-3.8-3.39-5.1-6.81c.92,4.76,1.36,6.51,4.84,8.89s9.35,3.73,14.56,3.59Z" style="fill:#f28f8f"></path>
        </g>
      </g>
    </g>
  </g>
</svg>