<svg id="Layer_1" data-name="Layer 1" xmlns="http://www.w3.org/2000/svg" viewBox="0 0 613.08 144.93"><defs><style>.cls-1{fill:#ea5953;}.cls-2{fill:#fff;}</style></defs><path class="cls-1" d="M492.57,467.54H366.11a2.06,2.06,0,0,0-2.06,2.06v29.89a2.06,2.06,0,0,0,2.06,2.06H492.57a2.06,2.06,0,0,0,2.06-2.06V469.6A2.06,2.06,0,0,0,492.57,467.54Z" transform="translate(-233.47 -467.54)"/><path class="cls-1" d="M492.57,523h-257a2.06,2.06,0,0,0-2.06,2.06V555a2.06,2.06,0,0,0,2.06,2.06h257a2.06,2.06,0,0,0,2.06-2.06V525.06A2.06,2.06,0,0,0,492.57,523Z" transform="translate(-233.47 -467.54)"/><path class="cls-1" d="M492.57,578.46h-195a2.06,2.06,0,0,0-2.06,2.06v29.89a2.06,2.06,0,0,0,2.06,2.06h195a2.06,2.06,0,0,0,2.06-2.06V580.52A2.06,2.06,0,0,0,492.57,578.46Z" transform="translate(-233.47 -467.54)"/><path class="cls-1" d="M459,467.66h52.57q46.74,0,46.74,36.78,0,18.24-16,30.31,23.22,10.08,23.21,35.93,0,19.82-13.68,31.58a39.2,39.2,0,0,1-14.31,7.85q-7.63,2.22-20.56,2.23h-8.16v-37.2h7.32q6.47,0,9.12-1.64c1.76-1.09,2.65-3,2.65-5.77q0-7-10.81-7h-8.27V522.15q11.87,0,11.87-8.16,0-7.53-10.7-7.52H502V612.36H459V467.66Z" transform="translate(-233.47 -467.54)"/><path class="cls-2" d="M626,467.66V612.35h-43V467.66Z" transform="translate(-233.47 -467.54)"/><path class="cls-2" d="M717.85,509.21V612.34h-43V509.21h-33V467.66H750.71v41.55Z" transform="translate(-233.47 -467.54)"/><path class="cls-2" d="M843.77,523.94v32.22H815.68c-3.81,0-6.52.56-8.11,1.7s-2.38,3-2.38,5.72q0,4.56,2.44,6c1.62.95,5,1.43,10,1.43h28.94v41.34H812.73q-23.85,0-36.46-11.39T763.66,568V511.33q0-20.77,11.92-32.22t33.55-11.45h37.42v41.55H819.1q-11.13,0-11.13,7.21,0,4.25,2.65,5.88c1.77,1.1,4.91,1.64,9.43,1.64Z" transform="translate(-233.47 -467.54)"/></svg>