<svg id="Layer_1" data-name="Layer 1" xmlns="http://www.w3.org/2000/svg" viewBox="0 0 668.82 158.11"><defs><style>.cls-1{fill:#ea5953;}.cls-2{fill:#2b2b2b;}</style></defs><rect class="cls-1" x="142.46" width="142.46" height="37.1" rx="2.06"/><rect class="cls-1" y="60.5" width="284.91" height="37.1" rx="2.06"/><rect class="cls-1" x="67.66" y="121.01" width="217.25" height="37.1" rx="2.06"/><path class="cls-1" d="M451.64,461.08H509q51,0,51,40.12,0,19.89-17.46,33.08,25.32,11,25.32,39.2,0,21.62-14.92,34.46a42.59,42.59,0,0,1-15.61,8.56q-8.33,2.43-22.43,2.42H506V578.34h8q7,0,9.94-1.8t2.89-6.3q0-7.63-11.79-7.63h-9V520.52q13,0,13-8.91,0-8.21-11.68-8.21h-8.67V618.92H451.64Z" transform="translate(-205.59 -460.95)"/><path class="cls-2" d="M633.77,461.08V618.92H586.82V461.08Z" transform="translate(-205.59 -460.95)"/><path class="cls-2" d="M734,506.41V618.92H687.08V506.41h-36V461.08H769.88v45.33Z" transform="translate(-205.59 -460.95)"/><path class="cls-2" d="M871.4,522.48v35.16H840.76c-4.16,0-7.11.61-8.85,1.85s-2.6,3.31-2.6,6.24c0,3.32.89,5.49,2.66,6.54s5.4,1.56,10.87,1.56h31.57v45.09H837.52q-26,0-39.78-12.43T784,570.58V508.72q0-22.67,13-35.15t36.6-12.49h40.82v45.33H844.46q-12.15,0-12.14,7.86c0,3.08,1,5.23,2.89,6.42s5.36,1.79,10.29,1.79Z" transform="translate(-205.59 -460.95)"/></svg>