<?xml version="1.0" encoding="UTF-8" standalone="no"?>
<!DOCTYPE svg PUBLIC "-//W3C//DTD SVG 1.1//EN" "http://www.w3.org/Graphics/SVG/1.1/DTD/svg11.dtd">
<svg width="1000px" height="1000px" version="1.1" xmlns="http://www.w3.org/2000/svg" xmlns:xlink="http://www.w3.org/1999/xlink" xml:space="preserve" xmlns:serif="http://www.serif.com/" style="fill-rule:evenodd;clip-rule:evenodd;stroke-linejoin:round;stroke-miterlimit:2;">
    <g transform="matrix(1,0,0,1,-4384,0)">
        <g id="Responsive-Design" serif:id="Responsive Design" transform="matrix(0.986219,0,0,1,3302.43,0)">
            <rect x="1096.68" y="0" width="1013.97" height="1000" style="fill:none;"/>
            <g transform="matrix(1.2805,0,0,1.26285,1092.11,-71.4391)">
                <path d="M500.221,505L496.211,505C496.211,505 472.66,498.729 472.66,432.968C472.66,413.597 368.658,413.609 368.658,434.41C368.658,497.727 344.494,505 344.494,505L341.24,505C338.338,505 336,507.268 336,510.17L336,512.797C336,515.699 338.338,518 341.24,518L500.221,518C503.123,518 506,515.699 506,512.797L506,510.17C506,507.268 503.123,505 500.221,505Z" style="fill:rgb(74,76,79);fill-rule:nonzero;"/>
                <path d="M605.203,176L235.597,176C228.475,176 222,179.738 222,186.858L222,444.725C222,451.847 228.475,461 235.597,461L605.203,461C612.326,461 616,451.847 616,444.725L616,186.858C616,179.738 612.326,176 605.203,176Z" style="fill:rgb(74,76,79);fill-rule:nonzero;"/>
                <rect x="241" y="197" width="356" height="204" style="fill:rgb(237,237,239);fill-rule:nonzero;"/>
                <path d="M436.537,431.732C436.537,440.649 429.309,447.873 420.396,447.873C411.486,447.873 404.26,440.649 404.26,431.732C404.26,422.818 411.486,415.594 420.396,415.594C429.309,415.594 436.537,422.818 436.537,431.732Z" style="fill:rgb(170,172,176);fill-rule:nonzero;"/>
                <path d="M379,225.719C379,228.636 376.595,231 373.161,231L306.717,231C303.283,231 300,228.636 300,225.719L300,215.281C300,212.364 303.283,210 306.717,210L373.161,210C376.595,210 379,212.364 379,215.281L379,225.719Z" style="fill:rgb(240,83,57);fill-rule:nonzero;"/>
                <path d="M537,292.719C537,295.636 534.352,298 530.919,298L306.716,298C303.283,298 300,295.636 300,292.719L300,243.281C300,240.364 303.283,238 306.716,238L530.919,238C534.352,238 537,240.364 537,243.281L537,292.719Z" style="fill:rgb(86,198,212);fill-rule:nonzero;"/>
                <path d="M373,334.719C373,337.636 370.708,340 367.275,340L306.717,340C303.283,340 300,337.636 300,334.719L300,308.281C300,305.364 303.283,303 306.717,303L367.275,303C370.708,303 373,305.364 373,308.281L373,334.719Z" style="fill:rgb(145,148,153);fill-rule:nonzero;"/>
                <path d="M453,334.719C453,337.636 450.764,340 447.331,340L386.772,340C383.339,340 380,337.636 380,334.719L380,308.281C380,305.364 383.339,303 386.772,303L447.331,303C450.764,303 453,305.364 453,308.281L453,334.719Z" style="fill:rgb(145,148,153);fill-rule:nonzero;"/>
                <path d="M537,334.719C537,337.636 534.352,340 530.919,340L470.359,340C466.927,340 464,337.636 464,334.719L464,308.281C464,305.364 466.927,303 470.359,303L530.919,303C534.352,303 537,305.364 537,308.281L537,334.719Z" style="fill:rgb(145,148,153);fill-rule:nonzero;"/>
                <path d="M453,349.987C453,351.202 452.331,352 450.94,352L383.445,352C382.055,352 380,351.202 380,349.987L380,349.106C380,347.891 382.055,347 383.445,347L450.94,347C452.331,347 453,347.891 453,349.106L453,349.987Z" style="fill:rgb(170,172,176);fill-rule:nonzero;"/>
                <path d="M453,358.788C453,360.003 452.331,361 450.94,361L383.445,361C382.055,361 380,360.003 380,358.788L380,357.908C380,356.692 382.055,356 383.445,356L450.94,356C452.331,356 453,356.692 453,357.908L453,358.788Z" style="fill:rgb(170,172,176);fill-rule:nonzero;"/>
                <path d="M453,367.589C453,368.804 452.331,370 450.94,370L383.445,370C382.055,370 380,368.804 380,367.589L380,366.709C380,365.494 382.055,365 383.445,365L450.94,365C452.331,365 453,365.494 453,366.709L453,367.589Z" style="fill:rgb(170,172,176);fill-rule:nonzero;"/>
                <path d="M453,376.39C453,377.605 452.331,379 450.94,379L383.445,379C382.055,379 380,377.605 380,376.39L380,375.51C380,374.295 382.055,373 383.445,373L450.94,373C452.331,373 453,374.295 453,375.51L453,376.39Z" style="fill:rgb(170,172,176);fill-rule:nonzero;"/>
                <path d="M420,385.191C420,386.407 419.174,387 417.784,387L383.445,387C382.055,387 380,386.407 380,385.191L380,384.311C380,383.096 382.055,382 383.445,382L417.784,382C419.174,382 420,383.096 420,384.311L420,385.191Z" style="fill:rgb(170,172,176);fill-rule:nonzero;"/>
                <path d="M535,349.987C535,351.202 535.223,352 533.832,352L466.337,352C464.947,352 464,351.202 464,349.987L464,349.106C464,347.891 464.947,347 466.337,347L533.832,347C535.223,347 535,347.891 535,349.106L535,349.987Z" style="fill:rgb(170,172,176);fill-rule:nonzero;"/>
                <path d="M535,358.788C535,360.003 535.223,361 533.832,361L466.337,361C464.947,361 464,360.003 464,358.788L464,357.908C464,356.692 464.947,356 466.337,356L533.832,356C535.223,356 535,356.692 535,357.908L535,358.788Z" style="fill:rgb(170,172,176);fill-rule:nonzero;"/>
                <path d="M535,367.589C535,368.804 535.223,370 533.832,370L466.337,370C464.947,370 464,368.804 464,367.589L464,366.709C464,365.494 464.947,365 466.337,365L533.832,365C535.223,365 535,365.494 535,366.709L535,367.589Z" style="fill:rgb(170,172,176);fill-rule:nonzero;"/>
                <path d="M535,376.39C535,377.605 535.223,379 533.832,379L466.337,379C464.947,379 464,377.605 464,376.39L464,375.51C464,374.295 464.947,373 466.337,373L533.832,373C535.223,373 535,374.295 535,375.51L535,376.39Z" style="fill:rgb(170,172,176);fill-rule:nonzero;"/>
                <path d="M502,385.191C502,386.407 502.065,387 500.676,387L466.337,387C464.947,387 464,386.407 464,385.191L464,384.311C464,383.096 464.947,382 466.337,382L500.676,382C502.065,382 502,383.096 502,384.311L502,385.191Z" style="fill:rgb(170,172,176);fill-rule:nonzero;"/>
                <path d="M372,349.987C372,351.202 371.511,352 370.121,352L302.626,352C301.235,352 300,351.202 300,349.987L300,349.106C300,347.891 301.235,347 302.626,347L370.121,347C371.511,347 372,347.891 372,349.106L372,349.987Z" style="fill:rgb(170,172,176);fill-rule:nonzero;"/>
                <path d="M372,358.788C372,360.003 371.511,361 370.121,361L302.626,361C301.235,361 300,360.003 300,358.788L300,357.908C300,356.692 301.235,356 302.626,356L370.121,356C371.511,356 372,356.692 372,357.908L372,358.788Z" style="fill:rgb(170,172,176);fill-rule:nonzero;"/>
                <path d="M372,367.589C372,368.804 371.511,370 370.121,370L302.626,370C301.235,370 300,368.804 300,367.589L300,366.709C300,365.494 301.235,365 302.626,365L370.121,365C371.511,365 372,365.494 372,366.709L372,367.589Z" style="fill:rgb(170,172,176);fill-rule:nonzero;"/>
                <path d="M372,376.39C372,377.605 371.511,379 370.121,379L302.626,379C301.235,379 300,377.605 300,376.39L300,375.51C300,374.295 301.235,373 302.626,373L370.121,373C371.511,373 372,374.295 372,375.51L372,376.39Z" style="fill:rgb(170,172,176);fill-rule:nonzero;"/>
                <path d="M339,385.191C339,386.407 338.354,387 336.964,387L302.626,387C301.235,387 300,386.407 300,385.191L300,384.311C300,383.096 301.235,382 302.626,382L336.964,382C338.354,382 339,383.096 339,384.311L339,385.191Z" style="fill:rgb(170,172,176);fill-rule:nonzero;"/>
                <path d="M397,680L95,680L95,486.332C95,482.305 98.978,480 103.006,480L391.015,480C395.042,480 397,482.305 397,486.332L397,680Z" style="fill:rgb(74,76,79);fill-rule:nonzero;"/>
                <rect x="107" y="494" width="280" height="171" style="fill:rgb(237,237,239);fill-rule:nonzero;"/>
                <path d="M436,688L436,679.554C436,677.541 434.955,677 432.94,677L62.902,677C60.888,677 59,677.541 59,679.554L59,688L59.256,688C59.256,688 68.37,695 73.838,695L422.005,695C427.473,695 436.588,688 436.588,688L436,688Z" style="fill:rgb(74,76,79);fill-rule:nonzero;"/>
                <path d="M280.733,683L215.109,683C209.642,683 209.642,677 209.642,677L286.201,677C286.201,677 286.201,683 280.733,683Z" style="fill:rgb(170,172,176);fill-rule:nonzero;"/>
                <path d="M219,518.435C219,520.871 217.352,523 214.912,523L167.826,523C165.388,523 163,520.871 163,518.435L163,509.605C163,507.169 165.388,505 167.826,505L214.912,505C217.352,505 219,507.169 219,509.605L219,518.435Z" style="fill:rgb(240,83,57);fill-rule:nonzero;"/>
                <path d="M331,574.586C331,577.023 329.023,579 326.586,579L167.414,579C164.977,579 163,577.023 163,574.586L163,533.414C163,530.977 164.977,529 167.414,529L326.586,529C329.023,529 331,530.977 331,533.414L331,574.586Z" style="fill:rgb(86,198,212);fill-rule:nonzero;"/>
                <path d="M215,609.665C215,612.102 212.938,614 210.498,614L167.826,614C165.388,614 163,612.102 163,609.665L163,587.594C163,585.156 165.388,583 167.826,583L210.498,583C212.938,583 215,585.156 215,587.594L215,609.665Z" style="fill:rgb(145,148,153);fill-rule:nonzero;"/>
                <path d="M272,609.585C272,612.023 270.023,614 267.585,614L225.415,614C222.977,614 221,612.023 221,609.585L221,587.415C221,584.977 222.977,583 225.415,583L267.585,583C270.023,583 272,584.977 272,587.415L272,609.585Z" style="fill:rgb(145,148,153);fill-rule:nonzero;"/>
                <path d="M330,609.585C330,612.023 328.023,614 325.586,614L283.414,614C280.977,614 279,612.023 279,609.585L279,587.415C279,584.977 280.977,583 283.414,583L325.586,583C328.023,583 330,584.977 330,587.415L330,609.585Z" style="fill:rgb(145,148,153);fill-rule:nonzero;"/>
                <path d="M272,622.54C272,623.556 271.499,624 270.512,624L222.586,624C221.599,624 221,623.556 221,622.54L221,621.805C221,620.788 221.599,620 222.586,620L270.512,620C271.499,620 272,620.788 272,621.805L272,622.54Z" style="fill:rgb(170,172,176);fill-rule:nonzero;"/>
                <path d="M272,629.897C272,630.913 271.499,632 270.512,632L222.586,632C221.599,632 221,630.913 221,629.897L221,629.162C221,628.146 221.599,627 222.586,627L270.512,627C271.499,627 272,628.146 272,629.162L272,629.897Z" style="fill:rgb(170,172,176);fill-rule:nonzero;"/>
                <path d="M272,637.255C272,638.271 271.499,640 270.512,640L222.586,640C221.599,640 221,638.271 221,637.255L221,636.519C221,635.503 221.599,634 222.586,634L270.512,634C271.499,634 272,635.503 272,636.519L272,637.255Z" style="fill:rgb(170,172,176);fill-rule:nonzero;"/>
                <path d="M272,644.612C272,645.629 271.499,647 270.512,647L222.586,647C221.599,647 221,645.629 221,644.612L221,643.877C221,642.86 221.599,642 222.586,642L270.512,642C271.499,642 272,642.86 272,643.877L272,644.612Z" style="fill:rgb(170,172,176);fill-rule:nonzero;"/>
                <path d="M248,651.969C248,652.985 247.956,654 246.969,654L222.586,654C221.599,654 221,652.985 221,651.969L221,651.233C221,650.218 221.599,649 222.586,649L246.969,649C247.956,649 248,650.218 248,651.233L248,651.969Z" style="fill:rgb(170,172,176);fill-rule:nonzero;"/>
                <path d="M331,622.54C331,623.556 330.357,624 329.37,624L281.444,624C280.457,624 279,623.556 279,622.54L279,621.805C279,620.788 280.457,620 281.444,620L329.37,620C330.357,620 331,620.788 331,621.805L331,622.54Z" style="fill:rgb(170,172,176);fill-rule:nonzero;"/>
                <path d="M331,629.897C331,630.913 330.357,632 329.37,632L281.444,632C280.457,632 279,630.913 279,629.897L279,629.162C279,628.146 280.457,627 281.444,627L329.37,627C330.357,627 331,628.146 331,629.162L331,629.897Z" style="fill:rgb(170,172,176);fill-rule:nonzero;"/>
                <path d="M331,637.255C331,638.271 330.357,640 329.37,640L281.444,640C280.457,640 279,638.271 279,637.255L279,636.519C279,635.503 280.457,634 281.444,634L329.37,634C330.357,634 331,635.503 331,636.519L331,637.255Z" style="fill:rgb(170,172,176);fill-rule:nonzero;"/>
                <path d="M331,644.612C331,645.629 330.357,647 329.37,647L281.444,647C280.457,647 279,645.629 279,644.612L279,643.877C279,642.86 280.457,642 281.444,642L329.37,642C330.357,642 331,642.86 331,643.877L331,644.612Z" style="fill:rgb(170,172,176);fill-rule:nonzero;"/>
                <path d="M308,651.969C308,652.985 306.814,654 305.827,654L281.444,654C280.457,654 279,652.985 279,651.969L279,651.233C279,650.218 280.457,649 281.444,649L305.827,649C306.814,649 308,650.218 308,651.233L308,651.969Z" style="fill:rgb(170,172,176);fill-rule:nonzero;"/>
                <path d="M215,622.54C215,623.556 214.112,624 213.125,624L165.199,624C164.213,624 163,623.556 163,622.54L163,621.805C163,620.788 164.213,620 165.199,620L213.125,620C214.112,620 215,620.788 215,621.805L215,622.54Z" style="fill:rgb(170,172,176);fill-rule:nonzero;"/>
                <path d="M215,629.897C215,630.913 214.112,632 213.125,632L165.199,632C164.213,632 163,630.913 163,629.897L163,629.162C163,628.146 164.213,627 165.199,627L213.125,627C214.112,627 215,628.146 215,629.162L215,629.897Z" style="fill:rgb(170,172,176);fill-rule:nonzero;"/>
                <path d="M215,637.255C215,638.271 214.112,640 213.125,640L165.199,640C164.213,640 163,638.271 163,637.255L163,636.519C163,635.503 164.213,634 165.199,634L213.125,634C214.112,634 215,635.503 215,636.519L215,637.255Z" style="fill:rgb(170,172,176);fill-rule:nonzero;"/>
                <path d="M215,644.612C215,645.629 214.112,647 213.125,647L165.199,647C164.213,647 163,645.629 163,644.612L163,643.877C163,642.86 164.213,642 165.199,642L213.125,642C214.112,642 215,642.86 215,643.877L215,644.612Z" style="fill:rgb(170,172,176);fill-rule:nonzero;"/>
                <path d="M191,651.969C191,652.985 190.568,654 189.581,654L165.199,654C164.213,654 163,652.985 163,651.969L163,651.233C163,650.218 164.213,649 165.199,649L189.581,649C190.568,649 191,650.218 191,651.233L191,651.969Z" style="fill:rgb(170,172,176);fill-rule:nonzero;"/>
                <path d="M740,579.468C740,587.138 733.988,594 726.322,594L583.338,594C575.672,594 569,587.138 569,579.468L569,381.532C569,373.862 575.672,367 583.338,367L726.322,367C733.988,367 740,373.862 740,381.532L740,579.468Z" style="fill:rgb(74,76,79);fill-rule:nonzero;"/>
                <rect x="583" y="384" width="143" height="174" style="fill:rgb(237,237,239);fill-rule:nonzero;"/>
                <path d="M666.303,575.521C666.303,581.861 661.17,586.992 654.83,586.992C648.491,586.992 643.357,581.861 643.357,575.521C643.357,569.182 648.491,564.045 654.83,564.045C661.17,564.045 666.303,569.182 666.303,575.521Z" style="fill:rgb(170,172,176);fill-rule:nonzero;"/>
                <path d="M656,411.055C656,413.457 654.171,415 651.768,415L605.352,415C602.947,415 601,413.457 601,411.055L601,402.352C601,399.949 602.947,398 605.352,398L651.768,398C654.171,398 656,399.949 656,402.352L656,411.055Z" style="fill:rgb(240,83,57);fill-rule:nonzero;"/>
                <path d="M708,466.173C708,468.575 706.389,471 703.985,471L605.352,471C602.947,471 601,468.575 601,466.173L601,425.56C601,423.157 602.947,421 605.352,421L703.985,421C706.389,421 708,423.157 708,425.56L708,466.173Z" style="fill:rgb(86,198,212);fill-rule:nonzero;"/>
                <path d="M652,500.985C652,503.388 649.82,505 647.416,505L605.352,505C602.947,505 601,503.388 601,500.985L601,479.228C601,476.825 602.947,475 605.352,475L647.416,475C649.82,475 652,476.825 652,479.228L652,500.985Z" style="fill:rgb(145,148,153);fill-rule:nonzero;"/>
                <path d="M708,500.985C708,503.388 706.389,505 703.985,505L661.921,505C659.518,505 658,503.388 658,500.985L658,479.228C658,476.825 659.518,475 661.921,475L703.985,475C706.389,475 708,476.825 708,479.228L708,500.985Z" style="fill:rgb(145,148,153);fill-rule:nonzero;"/>
                <path d="M708,513.677C708,514.68 707.548,515 706.574,515L659.332,515C658.358,515 658,514.68 658,513.677L658,512.953C658,511.95 658.358,511 659.332,511L706.574,511C707.548,511 708,511.95 708,512.953L708,513.677Z" style="fill:rgb(170,172,176);fill-rule:nonzero;"/>
                <path d="M708,520.93C708,521.932 707.548,523 706.574,523L659.332,523C658.358,523 658,521.932 658,520.93L658,520.204C658,519.203 658.358,518 659.332,518L706.574,518C707.548,518 708,519.203 708,520.204L708,520.93Z" style="fill:rgb(170,172,176);fill-rule:nonzero;"/>
                <path d="M708,528.182C708,529.184 707.548,530 706.574,530L659.332,530C658.358,530 658,529.184 658,528.182L658,527.457C658,526.455 658.358,526 659.332,526L706.574,526C707.548,526 708,526.455 708,527.457L708,528.182Z" style="fill:rgb(170,172,176);fill-rule:nonzero;"/>
                <path d="M708,535.435C708,536.436 707.548,537 706.574,537L659.332,537C658.358,537 658,536.436 658,535.435L658,534.709C658,533.708 658.358,533 659.332,533L706.574,533C707.548,533 708,533.708 708,534.709L708,535.435Z" style="fill:rgb(170,172,176);fill-rule:nonzero;"/>
                <path d="M685,542.687C685,543.688 684.34,545 683.367,545L659.332,545C658.358,545 658,543.688 658,542.687L658,541.962C658,540.96 658.358,540 659.332,540L683.367,540C684.34,540 685,540.96 685,541.962L685,542.687Z" style="fill:rgb(170,172,176);fill-rule:nonzero;"/>
                <path d="M652,513.677C652,514.68 650.979,515 650.006,515L602.762,515C601.789,515 601,514.68 601,513.677L601,512.953C601,511.95 601.789,511 602.762,511L650.006,511C650.979,511 652,511.95 652,512.953L652,513.677Z" style="fill:rgb(170,172,176);fill-rule:nonzero;"/>
                <path d="M652,520.93C652,521.932 650.979,523 650.006,523L602.762,523C601.789,523 601,521.932 601,520.93L601,520.204C601,519.203 601.789,518 602.762,518L650.006,518C650.979,518 652,519.203 652,520.204L652,520.93Z" style="fill:rgb(170,172,176);fill-rule:nonzero;"/>
                <path d="M652,528.182C652,529.184 650.979,530 650.006,530L602.762,530C601.789,530 601,529.184 601,528.182L601,527.457C601,526.455 601.789,526 602.762,526L650.006,526C650.979,526 652,526.455 652,527.457L652,528.182Z" style="fill:rgb(170,172,176);fill-rule:nonzero;"/>
                <path d="M652,535.435C652,536.436 650.979,537 650.006,537L602.762,537C601.789,537 601,536.436 601,535.435L601,534.709C601,533.708 601.789,533 602.762,533L650.006,533C650.979,533 652,533.708 652,534.709L652,535.435Z" style="fill:rgb(170,172,176);fill-rule:nonzero;"/>
                <path d="M629,542.687C629,543.688 627.771,545 626.797,545L602.762,545C601.789,545 601,543.688 601,542.687L601,541.962C601,540.96 601.789,540 602.762,540L626.797,540C627.771,540 629,540.96 629,541.962L629,542.687Z" style="fill:rgb(170,172,176);fill-rule:nonzero;"/>
                <path d="M596,716.713C596,723.191 589.744,729 583.258,729L508.915,729C502.432,729 497,723.191 497,716.713L497,556.289C497,549.809 502.432,544 508.915,544L583.258,544C589.744,544 596,549.809 596,556.289L596,716.713Z" style="fill:rgb(74,76,79);fill-rule:nonzero;"/>
                <path d="M596,716.713C596,723.191 589.744,729 583.258,729L508.915,729C502.432,729 497,723.191 497,716.713L497,556.289C497,549.809 502.432,544 508.915,544L583.258,544C589.744,544 596,549.809 596,556.289L596,716.713Z" style="fill:rgb(74,76,79);fill-rule:nonzero;"/>
                <rect x="504" y="567" width="85" height="135" style="fill:rgb(237,237,239);fill-rule:nonzero;"/>
                <path d="M553.195,715.215C553.195,719.137 550.014,722.322 546.088,722.322C542.161,722.322 538.98,719.137 538.98,715.215C538.98,711.291 542.161,708.107 546.088,708.107C550.014,708.107 553.195,711.291 553.195,715.215Z" style="fill:rgb(170,172,176);fill-rule:nonzero;"/>
                <path d="M563,558.141C563,559.168 562.168,560 561.142,560L525.858,560C524.832,560 524,559.168 524,558.141L524,557.859C524,556.832 524.832,556 525.858,556L561.142,556C562.168,556 563,556.832 563,557.859L563,558.141Z" style="fill:rgb(170,172,176);fill-rule:nonzero;"/>
                <path d="M580,587.48C580,589.424 578.424,591 576.48,591L516.52,591C514.576,591 513,589.424 513,587.48L513,580.52C513,578.576 514.576,577 516.52,577L576.48,577C578.424,577 580,578.576 580,580.52L580,587.48Z" style="fill:rgb(240,83,57);fill-rule:nonzero;"/>
                <path d="M580,631.479C580,633.424 578.424,635 576.48,635L516.52,635C514.576,635 513,633.424 513,631.479L513,598.521C513,596.576 514.576,595 516.52,595L576.48,595C578.424,595 580,596.576 580,598.521L580,631.479Z" style="fill:rgb(86,198,212);fill-rule:nonzero;"/>
                <path d="M580,659.554C580,661.497 578.8,663 576.812,663L516.229,663C514.242,663 513,661.497 513,659.554L513,641.953C513,640.01 514.242,639 516.229,639L576.812,639C578.8,639 580,640.01 580,641.953L580,659.554Z" style="fill:rgb(145,148,153);fill-rule:nonzero;"/>
                <path d="M580,688.554C580,690.497 578.801,692 576.812,692L516.229,692C514.242,692 513,690.497 513,688.554L513,670.953C513,669.01 514.242,668 516.229,668L576.812,668C578.801,668 580,669.01 580,670.953L580,688.554Z" style="fill:rgb(145,148,153);fill-rule:nonzero;"/>
            </g>
        </g>
    </g>
</svg>
