<svg viewBox="0 0 239.735 432.45" xmlns="http://www.w3.org/2000/svg">
  <defs></defs>
  <g id="freepik--character-1--inject-33">
    <g id="freepik--Chartacter--inject-33">
      <g id="freepik--bottom--inject-33">
        <polygon points="102.69 369.04 108.17 367.01 106.4 363.3 103.02 366.42 102.69 369.04"></polygon>
        <path d="M97.1,359.15s-.24,3.56-.3,4.68,4.71,4.63,5.89,5.21l.33-2.63a20.6,20.6,0,0,1,2.72,4.27c.91,1.6,2.06,4.63,4.58,6.7,3.74,3.08,9.58,4.67,15.55,4.91s9.39-1.19,11.09-2.48,2.25-2.8,1.84-4.31S97.1,359.15,97.1,359.15Z" style="fill:#263238"></path>
        <path d="M113.12,347.09l.09-2.06c1.1,0,1.21,3,2.81,5.59a53.37,53.37,0,0,0,8.34,10.79c6,5.55,11.4,9,14.09,11.54,3.6,3.34-2.78,8.58-12.52,8-4.83-.3-13.41-2.78-15.81-5.65s-3.85-7.33-5.77-9.41-6.06-4.2-7.25-6.73c-.66-1.39-.29-4.62.12-7.36.37-2.52.47-6.38,1.89-6.06l.09,1.3c.58,1.1,1.91,2.93,5.81,3.61C107,351,112.76,351.18,113.12,347.09Z" style="fill:#455a64"></path>
        <path d="M108.14,350.76c1.86-.15,3.86-.76,4.65-2.43l0-.06a4.72,4.72,0,0,0,1.23,4c1.73,2.05,12.66,16.48,12.66,16.48s-10.18-11.91-12.13-14.16c-2.89-3.31-3.81-3.7-6.46-3.81Z" style="opacity:0.15"></path>
        <path d="M110.55,354.58a.6.6,0,0,1-1.19-.14.6.6,0,0,1,1.19.14Z" style="opacity:0.15"></path>
        <path d="M113.41,357.77a.6.6,0,0,1-.67.52.59.59,0,0,1-.52-.66.6.6,0,0,1,1.19.14Z" style="opacity:0.15"></path>
        <path d="M116.26,361a.59.59,0,0,1-.66.53.6.6,0,0,1,.14-1.19A.59.59,0,0,1,116.26,361Z" style="opacity:0.15"></path>
        <path d="M119.12,364.16a.6.6,0,0,1-.66.52.59.59,0,1,1,.66-.52Z" style="opacity:0.15"></path>
        <path d="M122,367.35a.59.59,0,1,1-.52-.66A.6.6,0,0,1,122,367.35Z" style="opacity:0.15"></path>
        <path d="M109.94,354.75a.33.33,0,0,1-.16-.07.24.24,0,0,1,0-.34,9.77,9.77,0,0,1,6.75-2.63h0a.24.24,0,0,1,.22.25.25.25,0,0,1-.25.23c-3.54-.23-6.36,2.46-6.39,2.49A.26.26,0,0,1,109.94,354.75Z" style="fill:#263238"></path>
        <path d="M112.79,357.93a.23.23,0,0,1-.15-.07.24.24,0,0,1,0-.34,9.77,9.77,0,0,1,6.75-2.63h0a.24.24,0,0,1,.22.26.24.24,0,0,1-.25.22c-3.54-.22-6.36,2.47-6.39,2.49A.23.23,0,0,1,112.79,357.93Z" style="fill:#263238"></path>
        <path d="M115.65,361.13a.19.19,0,0,1-.15-.07.25.25,0,0,1,0-.34,9.92,9.92,0,0,1,6.75-2.63h0a.25.25,0,0,1,.22.26.24.24,0,0,1-.26.22c-3.53-.22-6.35,2.47-6.38,2.5A.22.22,0,0,1,115.65,361.13Z" style="fill:#263238"></path>
        <path d="M118.51,364.33a.26.26,0,0,1-.15-.07.25.25,0,0,1,0-.34,9.77,9.77,0,0,1,6.75-2.63h0a.24.24,0,1,1,0,.47,9.45,9.45,0,0,0-6.38,2.5A.28.28,0,0,1,118.51,364.33Z" style="fill:#263238"></path>
        <path d="M121.37,367.52a.21.21,0,0,1-.15-.07.24.24,0,0,1,0-.34,9.77,9.77,0,0,1,6.75-2.63h0a.24.24,0,0,1,.22.25.23.23,0,0,1-.25.23c-3.53-.23-6.36,2.47-6.39,2.49A.22.22,0,0,1,121.37,367.52Z" style="fill:#263238"></path>
        <path d="M69.08,385.22c.14,4.77-.33,8-1.77,10.92s-4.54,4.09-7.83,3.55-7.6-2.35-8.89-6.36-1.34-6.84-1-11.31Z" style="fill:#263238"></path>
        <path d="M53.25,352c-1.32.22-1.15,6.63-1.35,13.08-.22,6.92-2,9.93-2.26,15.6-.27,6.48.32,9.32,2.9,13s10.87,6.78,14.3.88c2.8-4.8,2.49-9.83,1.64-16.21-.88-6.59-1.56-11.22-1.73-16.26-.16-4.82-.24-9.5-1.44-9.94,0,.72,0,1.62-.06,2.32,0,.54.07,3.15-.67,3.24a9.92,9.92,0,0,1-.18-1.81,2.15,2.15,0,0,0-.5-1.52,2.46,2.46,0,0,0-1.53-.52,38,38,0,0,0-4-.27c-.67,0-1.34,0-2,.09a5.51,5.51,0,0,0-1.66.39,1.19,1.19,0,0,0-.66.71,2,2,0,0,0,0,.74,5.37,5.37,0,0,1-.05,1.33c0,.2-.15.44-.34.41s-.24-.21-.25-.37c-.07-.77,0-1.34-.07-2.25,0-.41,0-1,0-1.4S53.26,352.37,53.25,352Z" style="fill:#455a64"></path>
        <path d="M54.64,381.8a.47.47,0,0,0,.46.47.48.48,0,0,0,.48-.46.47.47,0,0,0-.46-.47A.48.48,0,0,0,54.64,381.8Z" style="opacity:0.15"></path>
        <path d="M54.7,377.34a.47.47,0,0,0,.46.47.46.46,0,0,0,.47-.46.47.47,0,1,0-.93,0Z" style="opacity:0.15"></path>
        <path d="M54.75,373.13a.48.48,0,0,0,.46.47.47.47,0,0,0,.47-.46.45.45,0,0,0-.45-.47A.47.47,0,0,0,54.75,373.13Z" style="opacity:0.15"></path>
        <path d="M54.81,369a.45.45,0,0,0,.46.47.47.47,0,0,0,.47-.46.48.48,0,0,0-.46-.47A.47.47,0,0,0,54.81,369Z" style="opacity:0.15"></path>
        <path d="M63.56,368.77a.45.45,0,0,0,.46.47.47.47,0,0,0,.47-.46.47.47,0,0,0-.46-.47A.46.46,0,0,0,63.56,368.77Z" style="opacity:0.15"></path>
        <path d="M63.5,373a.47.47,0,0,0,.46.47.46.46,0,0,0,.47-.46.45.45,0,0,0-.46-.47A.47.47,0,0,0,63.5,373Z" style="opacity:0.15"></path>
        <path d="M63.45,377.16a.46.46,0,0,0,.46.47.45.45,0,0,0,.47-.46.47.47,0,0,0-.46-.47A.46.46,0,0,0,63.45,377.16Z" style="opacity:0.15"></path>
        <path d="M63.39,381.63a.47.47,0,0,0,.46.47.46.46,0,0,0,.47-.46.45.45,0,0,0-.45-.47A.47.47,0,0,0,63.39,381.63Z" style="opacity:0.15"></path>
        <polygon points="59.67 384.06 60.53 352.87 58.81 352.99 59.67 384.06" style="opacity:0.15"></polygon>
        <path d="M55.11,382h.07c3-.95,6.46-1,8.59-.21a.24.24,0,0,0,.31-.13.23.23,0,0,0-.14-.31c-2.26-.87-5.76-.79-8.9.2a.24.24,0,0,0-.16.3A.25.25,0,0,0,55.11,382Z" style="fill:#263238"></path>
        <path d="M55.17,377.58a.2.2,0,0,0,.11,0c2.25-1.32,6.11-1.13,8.55-.19a.24.24,0,1,0,.17-.44c-2.55-1-6.59-1.17-9,.22a.23.23,0,0,0-.09.32A.24.24,0,0,0,55.17,377.58Z" style="fill:#263238"></path>
        <path d="M55.22,373.37a.27.27,0,0,0,.12,0c2.24-1.32,6.1-1.13,8.54-.19a.24.24,0,0,0,.31-.14.22.22,0,0,0-.14-.3c-2.54-1-6.58-1.17-8.95.22a.23.23,0,0,0-.08.32A.22.22,0,0,0,55.22,373.37Z" style="fill:#263238"></path>
        <path d="M55.27,369.22a.28.28,0,0,0,.12,0c2.24-1.31,6.11-1.12,8.55-.18a.23.23,0,0,0,.3-.14.24.24,0,0,0-.13-.31c-2.55-1-6.59-1.16-9,.23a.23.23,0,0,0-.08.32A.24.24,0,0,0,55.27,369.22Z" style="fill:#263238"></path>
        <path d="M63.74,171.81c-2.84,5.63-6.43,16.49-7.11,23.75C53.85,225.44,52,271.42,52,271.42c-.32,3.12-.86,8.57-2.42,22.31-1.84,16.23-.48,71-.48,71s12.47,5.27,19.77.55c0,0,10.52-74.59,12.85-90.72,2-14.08,6.46-47.74,6.46-47.74L93.65,272s-.73,12.68-.45,20.88c.33,9.55,3.64,62.64,3.64,62.64s12.8,5.52,22.42-1.73c0,0,1.12-65.18,1.48-76.66.71-22.51-2-69.88-4.16-93.67Z" style="fill:#37474f"></path>
        <path d="M88.2,226.82l1.81-11s10.84.29,16.61-4.8c0,0-2.32,6.86-13.34,7.59l-1.69,9.15L93,266.59Z" style="opacity:0.2"></path>
      </g>
      <g id="freepik--top--inject-33">
        <g id="freepik--arm--inject-33">
          <path d="M152.23,119.64c.74-1.4.7-5.12.87-8.09s.78-6.15.27-8.13c-.62-2.44-1.27-4.41,1.38-3.13s3.34,5.25,4,7.21c.39,1.11.72,2.1,1.82,1.23a29.72,29.72,0,0,0,4.73-6.11c1.42-2.37,1.49-5.09,2.61-6.31s1.48-1,1.74-.69.67,3.5-.14,6.46-2.66,4.94-2.25,5.14a1.15,1.15,0,0,0,.75,0c.59-.13,2.7-3.84,4-6.08,1.51-2.67,2.55-5.19,3.57-6s2.26-1,2.21-.11a31.24,31.24,0,0,1-1.86,6.34c-.76,1.68-4.16,6-3.75,6.27a.91.91,0,0,0,.82-.08c1-.65,2.49-3.08,3.65-4.42,1.46-1.68,2.51-3.32,3.4-4.17,1.28-1.24,1.91-.18,1.83.34-.4,2.38-2.8,6.36-4.81,8.78-1.67,2-1.33,2.88-.81,3.06s-6.77,4.17-6.77,4.17Z" style="fill:#b16668"></path>
          <path d="M184,103.47c-2,.47-5.42,6.11-8.62,7.46-3.7,1-11.75.14-16.15,2s-5.35,2.66-7,6.54c-2.11,4.52-6.19,14.06-10.14,21.36h0S121,120.1,117.25,116.56s-8.83-6.28-13.6-5.72l7.58,29.6s14,11.69,24.55,20.74c8.85,7.62,14,5.68,18-2.25a25.9,25.9,0,0,0,1.08-2.37c3.85-9.53,8.89-26.57,10.31-30.34s1.91-4.73,3.62-6.47c1.93-2,8.22-3.86,10-5.35s3.44-4,5.28-6.81c1-1.56,1.93-2.66,2-3.57C186,103.46,184.91,103.27,184,103.47Z" style="fill:#f28f8f"></path>
          <path d="M142.09,140.79a42.43,42.43,0,0,0-3.52,12.59s-1.47-4.65,2-14.19Z" style="fill:#f28f8f"></path>
          <path d="M103.82,110.61A15.52,15.52,0,0,1,115,114.19c4.12,3.39,27.06,26.14,27.06,26.14l5.11-10.23a16.44,16.44,0,0,0,6,4.42c3.71,1.53,9,1.24,9,1.24s-2.44,7.56-4.06,12.8-4.39,13.67-8.46,16.21-6.94,1.51-9.55,0-28.59-23-28.59-23Z" style="fill:#F55951"></path>
          <path d="M103.82,110.61A15.52,15.52,0,0,1,115,114.19c4.12,3.39,27.06,26.14,27.06,26.14l5.11-10.23a16.44,16.44,0,0,0,6,4.42c3.71,1.53,9,1.24,9,1.24s-2.44,7.56-4.06,12.8-4.39,13.67-8.46,16.21-6.94,1.51-9.55,0-28.59-23-28.59-23Z" style="fill:#fff;opacity:0.75"></path>
          <path d="M142.09,140.33c-1.62,3.16-3.33,9.57-2.85,12.9-1.74-5.5.47-12.68,1.38-14.44Z" style="opacity:0.2"></path>
        </g>
        <path d="M204.32,95.08h0c0-5.49-3.61-11-10.87-15.18-14.53-8.39-38.09-8.39-52.62,0-7.61,4.39-11.22,10.22-10.85,16v1.94c-.37,5.76,3.24,11.59,10.85,16,14.53,8.39,38.09,8.39,52.62,0,7.26-4.19,10.87-9.69,10.87-15.18h0Z" style="fill:#37474f"></path>
        <ellipse cx="167.13" cy="95.08" rx="37.2" ry="21.48" style="fill:#455a64"></ellipse>
        <path id="freepik--shadow--inject-33" d="M157.79,100.87c-5.16-3-5.16-7.81,0-10.79s13.52-3,18.68,0,5.17,7.81,0,10.79S163,103.85,157.79,100.87Z" style="fill:#37474f"></path>
        <g id="freepik--wine-bottle--inject-33">
          <g id="freepik--wine-bottle--inject-33">
            <path d="M170.5,37.79V27.4l-3.37.13-3.36-.13V37.79a16.77,16.77,0,0,1-4.25,11.26c-1.69,1.89-3.27,4.93-3.35,9.77V93.87h0c0,2.36,2.32,4.76,6.89,5.88a17.28,17.28,0,0,0,8.15,0c4.56-1.12,6.86-3.52,6.88-5.88h0V58.82c-.08-4.84-1.66-7.88-3.35-9.77A16.76,16.76,0,0,1,170.5,37.79Z" style="fill:#F55951"></path>
            <path d="M170.5,37.79V27.4l-3.37.13-3.36-.13V37.79a16.77,16.77,0,0,1-4.25,11.26c-1.69,1.89-3.27,4.93-3.35,9.77V93.87h0c0,2.36,2.32,4.76,6.89,5.88a17.28,17.28,0,0,0,8.15,0c4.56-1.12,6.86-3.52,6.88-5.88h0V58.82c-.08-4.84-1.66-7.88-3.35-9.77A16.76,16.76,0,0,1,170.5,37.79Z" style="opacity:0.30000000000000004"></path>
            <path d="M170.5,26.25s0-.06,0-.09a1.64,1.64,0,0,0-1-1.45,5.25,5.25,0,0,0-4.76,0,1.94,1.94,0,0,0-.87.89.47.47,0,0,0,0,.1s0,.05,0,.07a.79.79,0,0,0-.05.22v5.09a1.67,1.67,0,0,0,1,1.39,5.25,5.25,0,0,0,4.76,0,1.77,1.77,0,0,0,1-1.17.21.21,0,0,0,0-.11Z" style="fill:#37474f"></path>
            <path d="M169.51,27.46a5.25,5.25,0,0,1-4.76,0c-1.32-.76-1.32-2,0-2.75a5.25,5.25,0,0,1,4.76,0C170.83,25.47,170.83,26.7,169.51,27.46Z" style="fill:#455a64"></path>
            <path d="M178.09,59.9V79c0,1.63-1.07,3.25-3.21,4.47a17.3,17.3,0,0,1-12.46,1.23V65.6c4.07,1.13,9.09.72,12.46-1.23C177,63.14,178.09,61.51,178.09,59.9Z" style="fill:#fff"></path>
          </g>
        </g>
        <g id="freepik--Chest--inject-33">
          <path d="M79.81,109.63c-5.56.47-18.19,1.71-22.59,2.52-3.83,1.52-2.88,4.17-3,8.77-.58,15.8,6.31,49.61,6.31,49.61l-3.36,22c7.54,7.71,41.48,13.85,60,1.91,0,0-.27-38.4-3.49-61-2.31-16.14-6.42-22.71-12.3-23Z" style="fill:#F55951"></path>
          <path d="M79.81,109.63c-5.56.47-18.19,1.71-22.59,2.52-3.83,1.52-2.88,4.17-3,8.77-.58,15.8,6.31,49.61,6.31,49.61l-3.36,22c7.54,7.71,41.48,13.85,60,1.91,0,0-.27-38.4-3.49-61-2.31-16.14-6.42-22.71-12.3-23Z" style="fill:#fff;opacity:0.85"></path>
          <path d="M71.26,110.43l23.11,32.68,1.84-32.86,5.14.2a7.64,7.64,0,0,1,6.47,2.53c3.1,3.18,6.8,10.49,8.12,33s1.75,51.12,1.75,51.12l-13.93,5.58-4.63-15.77L94.9,203.83s-26.45.51-38.08-9.85c0-.66,3.22-23.45,3.22-23.45s-3-11.3-4.39-21.11a18.26,18.26,0,0,0,8.95-15.07c.57-10.8-3.79-22.74-3.79-22.74Z" style="fill:#263238"></path>
          <path d="M68.17,65.72l.07-.12a13.79,13.79,0,0,0,.62-2.16,13.85,13.85,0,0,1,3.28-5.21A16,16,0,0,1,79,54.42a25.9,25.9,0,0,1,4.12-.82,50.06,50.06,0,0,1,5-.49C92,53,96,54,99.89,53.22a13.31,13.31,0,0,0,5-2,1.17,1.17,0,0,1,.6-.25c.36,0,.6.36.76.69a8.9,8.9,0,0,1-.23,8c1.31-.46,2.9-.88,4,0a3,3,0,0,1,1,2.32,5.24,5.24,0,0,1-1.59,3.8c1.61.54,2.32,2.43,2.32,3.85a5.45,5.45,0,0,1-1.72,4.5,7.08,7.08,0,0,1-3.58,1.59,15.42,15.42,0,0,1-3.84,0,45.75,45.75,0,0,1,.85,6.49,9.68,9.68,0,0,1-.61,4.62c-.71,1.5-2.26,2.12-3.69,2.79A24.14,24.14,0,0,1,88.31,91.8H88A23.71,23.71,0,0,1,74.65,87.2l0,3.9-.16,10.43a53.45,53.45,0,0,0-3.66-7.17c-1.24-1.94-2.69-4.2-5.21-11.39C63,75.27,63.24,68.31,68.17,65.72Z" style="fill:#455a64"></path>
          <path d="M74.86,84.08c-1.38.23-2.16-2.18-3.35-3.47A4.32,4.32,0,0,0,64.37,82c-2.1,4.19.38,8.28,3.75,10a6,6,0,0,0,6.11-1.09l.36,20.53c3.62,4.85,10,2.37,17.41,4.82,2.35-5.66,1.75-2.9.08-5.55l.11-5.89s4.84.84,7.22.52c4-.52,6.51-3.58,7.8-7.83,2.06-6.81,1.61-17,1.24-25.7a18.25,18.25,0,0,0-1-5.86c-.9,1-4.49,2.89-9.59,3.4a28.55,28.55,0,0,1-13.1-1.49,5.84,5.84,0,0,1-1.22,4.32,5.45,5.45,0,0,1-3.46,1.9,15.9,15.9,0,0,1-2.2,6.79C77.4,81.7,76,84.08,74.86,84.08Z" style="fill:#f28f8f"></path>
          <path d="M92.19,104.85s-8.77-2-11.81-3.67a10.12,10.12,0,0,1-4.17-4.3,13.92,13.92,0,0,0,2.31,5c2.19,2.92,13.62,5.29,13.62,5.29Z" style="fill:#b16668"></path>
          <path d="M89.47,91.75,94.74,94A2.8,2.8,0,0,1,91,95.6,3,3,0,0,1,89.47,91.75Z" style="fill:#b16668"></path>
          <path d="M106.29,76.48l-4.59-1.81a2.37,2.37,0,0,1,3.12-1.44A2.6,2.6,0,0,1,106.29,76.48Z" style="fill:#263238"></path>
          <path d="M84.53,77.51l4.18-2.73A2.4,2.4,0,0,0,85.32,74,2.62,2.62,0,0,0,84.53,77.51Z" style="fill:#263238"></path>
          <polygon points="95.24 78.18 95.94 90.17 101.7 87.91 95.24 78.18" style="fill:#b16668"></polygon>
          <path d="M101.62,81.51a2.11,2.11,0,0,0,1.77,2.34,2,2,0,0,0,2.3-1.69,2.12,2.12,0,0,0-1.77-2.34A2,2,0,0,0,101.62,81.51Z" style="fill:#263238"></path>
          <path d="M86.64,81.51a2.12,2.12,0,0,0,1.77,2.34,2,2,0,0,0,2.3-1.69,2.1,2.1,0,0,0-1.77-2.34A2,2,0,0,0,86.64,81.51Z" style="fill:#263238"></path>
          <path d="M74.42,101.9l0,1.67c.24,1.27,2.47,3.89,8.72,6.79S92,116.29,92,116.29a16.24,16.24,0,0,0-5,.86c-2.88,1-7.68,4.55-9,4.5s-3.32-3.47-6.83-7.25c-3-3.18-3.4-3.6-3.4-3.6C70.1,108.3,72.3,101.61,74.42,101.9Z" style="fill:#F55951"></path>
          <path d="M92.05,116.18c4-.21,6.44,3.14,7,2.31s-2.26-10.29-6.87-12.06Z" style="fill:#F55951"></path>
          <g style="opacity:0.75">
            <path d="M74.42,101.9l0,1.67c.24,1.27,2.47,3.89,8.72,6.79S92,116.29,92,116.29a16.24,16.24,0,0,0-5,.86c-2.88,1-7.68,4.55-9,4.5s-3.32-3.47-6.83-7.25c-3-3.18-3.4-3.6-3.4-3.6C70.1,108.3,72.3,101.61,74.42,101.9Z" style="fill:#fff"></path>
            <path d="M92.05,116.18c4-.21,6.44,3.14,7,2.31s-2.26-10.29-6.87-12.06Z" style="fill:#fff"></path>
          </g>
          <path d="M92.68,118.09a2.68,2.68,0,0,1-.62-2.73c1.94-3.53,6.27-4.08,7.44-3.6,2.08.85,2,8-.11,8.76S92.63,118.52,92.68,118.09Z" style="fill:#F55951"></path>
          <path d="M93.25,116.29c.93-.41,4.81-2.4,5-1.6.3,1-4.23,2-4.23,2s4.5.3,4.2,1.38c-.2.73-4.72-.87-4.72-.87Z" style="opacity:0.1"></path>
          <path d="M93,115.52a1,1,0,0,1,.21.21,2.72,2.72,0,0,1,.58,2.42A2.57,2.57,0,0,1,92,119.62a3.53,3.53,0,0,1-2.95-.47,2.38,2.38,0,0,1-.84-2.5C88.77,114.71,91.59,114.26,93,115.52Z" style="fill:#F55951"></path>
          <path d="M93,115.52a1,1,0,0,1,.21.21,2.72,2.72,0,0,1,.58,2.42A2.57,2.57,0,0,1,92,119.62a3.53,3.53,0,0,1-2.95-.47,2.38,2.38,0,0,1-.84-2.5C88.77,114.71,91.59,114.26,93,115.52Z" style="opacity:0.2"></path>
          <path d="M89.23,116.45c-.41-1.24-5.54-5-8.61-2.81-1.61,1.12-.55,7.86,1.3,8.6,2.69,1.08,6.66-1.5,7.35-3.53A2.73,2.73,0,0,0,89.23,116.45Z" style="fill:#F55951"></path>
          <path d="M89.45,117.08a3.31,3.31,0,0,1,0,.55c-.36.38-4.83,2.11-4.93,1.35s4.07-1.69,4.07-1.69-4.85-.82-4.57-1.68C84.24,115,88.9,116.63,89.45,117.08Z" style="opacity:0.1"></path>
        </g>
        <g id="freepik--arm--inject-33">
          <path d="M50.32,206.06c.19,3.29-.06,5.35,1.19,7.41a26.29,26.29,0,0,0,3.11,3.35c2.66,3,2.23,4.68,4.16,7.38,1.5,2.11,2.95,2.79,2.63,3.34a2.94,2.94,0,0,1-3.93.79,10.36,10.36,0,0,1-2.89-2.1A14.64,14.64,0,0,0,55,228a30.68,30.68,0,0,0,1.4,3.47,25.36,25.36,0,0,0,2.28,3.89c1,1.51,2.45,3,3.2,4.62.61,1.37-.8,1.85-2,1.8s-2.49-.88-3.84-.76a12.49,12.49,0,0,0-1.76.58c-1.34.34-2.09-.23-3.24-.78a22,22,0,0,1-4.94-2.62,19.84,19.84,0,0,1-3.86-4.51,30.57,30.57,0,0,1-2.35-4.46c-.66-1.55-1-3.23-1.47-4.85a121.83,121.83,0,0,1-3.69-17.09c-1-6.22-4.08-30.44-4.08-30.44l19.13-2S50.07,201.52,50.32,206.06Z" style="fill:#f28f8f"></path>
          <path d="M60.81,111.61c-3.84.34-9.61.06-13.91,4.48-4.69,4.83-7.59,16.61-10.79,28.71s-4,15.91-5.35,24.83a23.7,23.7,0,0,0-.38,7.34c.73,5.47,1.31,10,1.31,10s11.56,3.34,18.36-.77L49.85,171l12.26-34.43A38.83,38.83,0,0,0,60.81,111.61Z" style="fill:#F55951"></path>
          <path d="M60.81,111.61c-3.84.34-9.61.06-13.91,4.48-4.69,4.83-7.59,16.61-10.79,28.71s-4,15.91-5.35,24.83a23.7,23.7,0,0,0-.38,7.34c.73,5.47,1.31,10,1.31,10s11.56,3.34,18.36-.77L49.85,171l12.26-34.43A38.83,38.83,0,0,0,60.81,111.61Z" style="fill:#fff;opacity:0.75"></path>
        </g>
      </g>
    </g>
  </g>
</svg>